<svg width="46" height="46" viewBox="0 0 46 46" fill="none" xmlns="http://www.w3.org/2000/svg">
<path d="M8.84733 38.3333C7.96439 38.3333 7.22775 38.0381 6.63742 37.4478C6.04708 36.8575 5.75128 36.1202 5.75 35.236V16.514C5.75 15.631 6.04581 14.8944 6.63742 14.304C7.22903 13.7137 7.96503 13.4179 8.84542 13.4166H17.25V10.762C17.25 9.88038 17.5458 9.14374 18.1374 8.55213C18.729 7.96052 19.4657 7.66535 20.3473 7.66663H25.6546C26.5363 7.66663 27.2729 7.9618 27.8645 8.55213C28.4561 9.14246 28.7513 9.8791 28.75 10.762V13.4166H37.1546C38.0362 13.4166 38.7723 13.7124 39.3626 14.304C39.9529 14.8957 40.2487 15.6323 40.25 16.514V35.2379C40.25 36.1195 39.9542 36.8562 39.3626 37.4478C38.771 38.0394 38.035 38.3346 37.1546 38.3333H8.84733ZM8.84733 36.4166H37.1546C37.4485 36.4166 37.7187 36.294 37.9653 36.0486C38.2119 35.8033 38.3346 35.5324 38.3333 35.236V16.514C38.3333 16.2188 38.2107 15.9479 37.9653 15.7013C37.72 15.4547 37.4497 15.332 37.1546 15.3333H8.84542C8.55153 15.3333 8.28128 15.456 8.03467 15.7013C7.78806 15.9466 7.66539 16.2175 7.66667 16.514V35.2379C7.66667 35.5318 7.78933 35.802 8.03467 36.0486C8.28 36.2952 8.55025 36.4179 8.84542 36.4166M19.1667 13.4166H26.8333V10.762C26.8333 10.4682 26.7107 10.1979 26.4653 9.9513C26.22 9.70469 25.9498 9.58202 25.6546 9.5833H20.3454C20.0515 9.5833 19.7813 9.70596 19.5347 9.9513C19.2881 10.1966 19.1654 10.4669 19.1667 10.762V13.4166Z" fill="#E0F8F3"/>
<path d="M8.84733 36.4166H37.1546C37.4485 36.4166 37.7187 36.294 37.9653 36.0486C38.2119 35.8033 38.3346 35.5324 38.3333 35.236V16.514C38.3333 16.2188 38.2107 15.9479 37.9653 15.7013C37.72 15.4547 37.4497 15.332 37.1546 15.3333H8.84542C8.55153 15.3333 8.28128 15.456 8.03467 15.7013C7.78806 15.9466 7.66539 16.2175 7.66667 16.514V35.2379C7.66667 35.5318 7.78933 35.802 8.03467 36.0486C8.28 36.2952 8.55025 36.4179 8.84542 36.4166M7.66667 36.4166V15.3333M8.84733 38.3333C7.96439 38.3333 7.22775 38.0381 6.63742 37.4478C6.04708 36.8575 5.75128 36.1202 5.75 35.236V16.514C5.75 15.631 6.04581 14.8944 6.63742 14.304C7.22903 13.7137 7.96503 13.4179 8.84542 13.4166H17.25V10.762C17.25 9.88038 17.5458 9.14374 18.1374 8.55213C18.729 7.96052 19.4657 7.66535 20.3473 7.66663H25.6546C26.5363 7.66663 27.2729 7.9618 27.8645 8.55213C28.4561 9.14246 28.7513 9.8791 28.75 10.762V13.4166H37.1546C38.0362 13.4166 38.7723 13.7124 39.3626 14.304C39.9529 14.8957 40.2487 15.6323 40.25 16.514V35.2379C40.25 36.1195 39.9542 36.8562 39.3626 37.4478C38.771 38.0394 38.035 38.3346 37.1546 38.3333H8.84733ZM19.1667 13.4166H26.8333V10.762C26.8333 10.4682 26.7107 10.1979 26.4653 9.9513C26.22 9.70469 25.9498 9.58202 25.6546 9.5833H20.3454C20.0515 9.5833 19.7813 9.70596 19.5347 9.9513C19.2881 10.1966 19.1654 10.4669 19.1667 10.762V13.4166Z" stroke="white"/>
</svg>
