<svg width="46" height="44" viewBox="0 0 46 44" fill="none" xmlns="http://www.w3.org/2000/svg">
<path d="M17.2227 22.3428C17.2227 21.9724 17.3698 21.6172 17.6317 21.3553C17.8935 21.0935 18.2487 20.9463 18.6191 20.9463H20.9465V18.619C20.9465 18.2486 21.0936 17.8934 21.3555 17.6315C21.6174 17.3697 21.9725 17.2225 22.3429 17.2225C22.7132 17.2225 23.0684 17.3697 23.3303 17.6315C23.5922 17.8934 23.7393 18.2486 23.7393 18.619V20.9463H26.0667C26.4371 20.9463 26.7922 21.0935 27.0541 21.3553C27.316 21.6172 27.4631 21.9724 27.4631 22.3428C27.4631 22.7131 27.316 23.0683 27.0541 23.3302C26.7922 23.5921 26.4371 23.7392 26.0667 23.7392H23.7393V26.0666C23.7393 26.4369 23.5922 26.7921 23.3303 27.054C23.0684 27.3159 22.7132 27.463 22.3429 27.463C21.9725 27.463 21.6174 27.3159 21.3555 27.054C21.0936 26.7921 20.9465 26.4369 20.9465 26.0666V23.7392H18.6191C18.2487 23.7392 17.8935 23.5921 17.6317 23.3302C17.3698 23.0683 17.2227 22.7131 17.2227 22.3428Z" fill="#E0F8F3"/>
<path fill-rule="evenodd" clip-rule="evenodd" d="M22.3429 2.32739C11.2887 2.32739 2.32739 11.2887 2.32739 22.3429C2.32739 33.397 11.2887 42.3583 22.3429 42.3583C33.397 42.3583 42.3583 33.397 42.3583 22.3429C42.3583 11.2887 33.397 2.32739 22.3429 2.32739ZM20.9464 5.17611C16.8744 5.50717 13.0527 7.275 10.1639 10.1639C7.275 13.0527 5.50717 16.8744 5.17611 20.9464H9.30954C9.67989 20.9464 10.0351 21.0936 10.297 21.3554C10.5588 21.6173 10.706 21.9725 10.706 22.3429C10.706 22.7132 10.5588 23.0684 10.297 23.3303C10.0351 23.5922 9.67989 23.7393 9.30954 23.7393H5.17611C5.50717 27.8113 7.275 31.633 10.1639 34.5219C13.0527 37.4107 16.8744 39.1786 20.9464 39.5096V35.3762C20.9464 35.0058 21.0936 34.6507 21.3554 34.3888C21.6173 34.1269 21.9725 33.9798 22.3429 33.9798C22.7132 33.9798 23.0684 34.1269 23.3303 34.3888C23.5922 34.6507 23.7393 35.0058 23.7393 35.3762V39.5096C27.8113 39.1786 31.633 37.4107 34.5219 34.5219C37.4107 31.633 39.1786 27.8113 39.5096 23.7393H35.3762C35.0059 23.7393 34.6507 23.5922 34.3888 23.3303C34.1269 23.0684 33.9798 22.7132 33.9798 22.3429C33.9798 21.9725 34.1269 21.6173 34.3888 21.3554C34.6507 21.0936 35.0059 20.9464 35.3762 20.9464H39.5096C39.1786 16.8744 37.4107 13.0527 34.5219 10.1639C31.633 7.275 27.8113 5.50717 23.7393 5.17611V9.30954C23.7393 9.67989 23.5922 10.0351 23.3303 10.297C23.0684 10.5588 22.7132 10.706 22.3429 10.706C21.9725 10.706 21.6173 10.5588 21.3554 10.297C21.0936 10.0351 20.9464 9.67989 20.9464 9.30954V5.17611Z" fill="#E0F8F3"/>
</svg>
