<?xml version="1.0" encoding="UTF-8"?>
<svg xmlns="http://www.w3.org/2000/svg" xmlns:xlink="http://www.w3.org/1999/xlink" viewBox="0 0 800 800">
  <defs>
    <style>
      .cls-1 {
        fill: #cfcfcf;
      }

      .cls-1, .cls-2, .cls-3, .cls-4, .cls-5, .cls-6, .cls-7, .cls-8, .cls-9, .cls-10, .cls-11, .cls-12, .cls-13, .cls-14, .cls-15, .cls-16, .cls-17, .cls-18, .cls-19, .cls-20, .cls-21, .cls-22, .cls-23, .cls-24, .cls-25, .cls-26, .cls-27, .cls-28, .cls-29, .cls-30, .cls-31, .cls-32, .cls-33, .cls-34, .cls-35, .cls-36, .cls-37, .cls-38, .cls-39, .cls-40, .cls-41, .cls-42, .cls-43, .cls-44, .cls-45, .cls-46, .cls-47, .cls-48, .cls-49, .cls-50, .cls-51, .cls-52, .cls-53, .cls-54, .cls-55, .cls-56, .cls-57, .cls-58, .cls-59, .cls-60, .cls-61, .cls-62, .cls-63, .cls-64, .cls-65, .cls-66, .cls-67, .cls-68, .cls-69, .cls-70, .cls-71, .cls-72, .cls-73, .cls-74, .cls-75, .cls-76, .cls-77, .cls-78, .cls-79 {
        fill-rule: evenodd;
      }

      .cls-2 {
        fill: #f4f4f4;
      }

      .cls-3 {
        fill: #c6c6c6;
      }

      .cls-4 {
        fill: #d3d3d3;
      }

      .cls-5 {
        fill: #fdfdfd;
      }

      .cls-6 {
        fill: #d7d7d7;
      }

      .cls-7 {
        fill: #bbb;
      }

      .cls-8 {
        fill: #d6d6d6;
      }

      .cls-9 {
        fill: #dedede;
      }

      .cls-10 {
        fill: #f1f1f1;
      }

      .cls-11 {
        fill: #b8b8b8;
      }

      .cls-12 {
        fill: #efefef;
      }

      .cls-13 {
        fill: #ccc;
      }

      .cls-80 {
        fill: #2d5ce0;
      }

      .cls-14 {
        fill: #d1d1d1;
      }

      .cls-81, .cls-16 {
        fill: #fff;
      }

      .cls-15 {
        fill: #eaeaea;
      }

      .cls-17 {
        fill: #fbfbfb;
      }

      .cls-18 {
        fill: #b6b6b6;
      }

      .cls-19 {
        fill: #dadada;
      }

      .cls-20 {
        fill: #c9c9c9;
      }

      .cls-21 {
        fill: url(#linear-gradient);
      }

      .cls-21, .cls-82, .cls-70 {
        mix-blend-mode: multiply;
      }

      .cls-22 {
        fill: #b3b3b3;
      }

      .cls-23 {
        fill: #c1c1c1;
      }

      .cls-24 {
        fill: #e9e9e9;
      }

      .cls-25 {
        fill: #c3c3c3;
      }

      .cls-26 {
        fill: #d4d4d4;
      }

      .cls-27 {
        fill: #dcdcdc;
      }

      .cls-28 {
        fill: #f9f9f9;
      }

      .cls-29 {
        fill: #eee;
      }

      .cls-30 {
        fill: #b5b5b5;
      }

      .cls-31 {
        fill: #dfdfdf;
      }

      .cls-32 {
        fill: #bcbcbc;
      }

      .cls-33 {
        fill: #b9b9b9;
      }

      .cls-34 {
        fill: #f6f6f6;
      }

      .cls-35 {
        fill: #f2f2f2;
      }

      .cls-83 {
        isolation: isolate;
      }

      .cls-36 {
        fill: #e3e3e3;
      }

      .cls-37 {
        fill: #e7e7e7;
      }

      .cls-84 {
        fill: #f23636;
      }

      .cls-38 {
        fill: #d8d8d8;
      }

      .cls-39 {
        fill: #d0d0d0;
      }

      .cls-40 {
        fill: #e1e1e1;
      }

      .cls-41 {
        fill: #c7c7c7;
      }

      .cls-42 {
        fill: #cacaca;
      }

      .cls-43 {
        fill: #cdcdcd;
      }

      .cls-44 {
        fill: #fefefe;
      }

      .cls-85 {
        clip-rule: evenodd;
        fill: none;
      }

      .cls-45 {
        fill: #e5e5e5;
      }

      .cls-46 {
        fill: #ebebeb;
      }

      .cls-47 {
        fill: #e0e0e0;
      }

      .cls-48 {
        fill: #cecece;
      }

      .cls-49 {
        fill: #bebebe;
      }

      .cls-50 {
        fill: #c2c2c2;
      }

      .cls-51 {
        fill: #e8e8e8;
      }

      .cls-52 {
        fill: #e6e6e6;
      }

      .cls-53 {
        fill: #f8f8f8;
      }

      .cls-54 {
        fill: #ececec;
      }

      .cls-55 {
        fill: #bababa;
      }

      .cls-56 {
        fill: #fcfcfc;
      }

      .cls-57 {
        fill: #f5f5f5;
      }

      .cls-58 {
        fill: #b4b4b4;
      }

      .cls-59 {
        fill: #d5d5d5;
      }

      .cls-60 {
        fill: #f0f0f0;
      }

      .cls-61 {
        fill: #c5c5c5;
      }

      .cls-62 {
        fill: #f7f7f7;
      }

      .cls-63 {
        fill: #cbcbcb;
      }

      .cls-64 {
        fill: #fafafa;
      }

      .cls-65 {
        fill: #c4c4c4;
      }

      .cls-66 {
        fill: #dbdbdb;
      }

      .cls-67 {
        fill: #ddd;
      }

      .cls-68 {
        fill: #c8c8c8;
      }

      .cls-69 {
        fill: silver;
      }

      .cls-70 {
        fill: url(#linear-gradient-2);
      }

      .cls-71 {
        fill: #ededed;
      }

      .cls-72 {
        fill: #e2e2e2;
      }

      .cls-73 {
        fill: #b7b7b7;
      }

      .cls-74 {
        fill: #bfbfbf;
      }

      .cls-75 {
        fill: #f3f3f3;
      }

      .cls-76 {
        fill: #bdbdbd;
      }

      .cls-77 {
        fill: #e4e4e4;
      }

      .cls-86 {
        clip-path: url(#clippath);
      }

      .cls-78 {
        fill: #d9d9d9;
      }

      .cls-79 {
        fill: #d2d2d2;
      }
    </style>
    <clipPath id="clippath">
      <path class="cls-85" d="M160.81,215.5h485.22c15.31,0,27.76,12.51,27.76,27.76v262.69c0,15.24-12.45,27.76-27.76,27.76H160.81c-15.24,0-27.76-12.51-27.76-27.76V243.26c0-15.25,12.51-27.76,27.76-27.76h0Z"/>
    </clipPath>
    <linearGradient id="linear-gradient" x1="276.66" y1="431.42" x2="713.99" y2="235.42" gradientUnits="userSpaceOnUse">
      <stop offset="0" stop-color="#fff"/>
      <stop offset="1" stop-color="#8f8f8f"/>
    </linearGradient>
    <linearGradient id="linear-gradient-2" x1="673.79" y1="374.6" x2="133.06" y2="374.6" xlink:href="#linear-gradient"/>
  </defs>
  <g class="cls-83">
    <g id="_3" data-name="3">
      <g class="cls-82">
        <path class="cls-16" d="M127.96,254.36h485.22c15.3,0,27.76,12.51,27.76,27.76v262.68c0,15.25-12.45,27.76-27.76,27.76H127.96c-15.25,0-27.76-12.51-27.76-27.76v-262.68c0-15.25,12.51-27.76,27.76-27.76h0Z"/>
        <path class="cls-44" d="M128.39,253.85h485.22c15.3,0,27.76,12.51,27.76,27.76v262.68c0,15.25-12.45,27.76-27.76,27.76H128.39c-15.25,0-27.76-12.51-27.76-27.76v-262.68c0-15.24,12.51-27.76,27.76-27.76h0Z"/>
        <path class="cls-5" d="M128.81,253.35h485.22c15.3,0,27.76,12.51,27.76,27.76v262.69c0,15.25-12.45,27.76-27.76,27.76H128.81c-15.25,0-27.76-12.51-27.76-27.76v-262.69c0-15.25,12.51-27.76,27.76-27.76h0Z"/>
        <path class="cls-56" d="M129.24,252.84h485.22c15.3,0,27.76,12.51,27.76,27.76v262.69c0,15.25-12.45,27.76-27.76,27.76H129.24c-15.24,0-27.76-12.51-27.76-27.76v-262.69c0-15.24,12.51-27.76,27.76-27.76h0Z"/>
        <path class="cls-17" d="M129.67,252.34h485.22c15.31,0,27.76,12.51,27.76,27.76v262.68c0,15.25-12.45,27.76-27.76,27.76H129.67c-15.25,0-27.76-12.51-27.76-27.76v-262.68c0-15.25,12.51-27.76,27.76-27.76h0Z"/>
        <path class="cls-64" d="M130.09,251.83h485.22c15.3,0,27.76,12.51,27.76,27.76v262.68c0,15.25-12.45,27.76-27.76,27.76H130.09c-15.24,0-27.76-12.51-27.76-27.76v-262.68c0-15.24,12.51-27.76,27.76-27.76h0Z"/>
        <path class="cls-28" d="M130.52,251.33h485.22c15.3,0,27.76,12.51,27.76,27.76v262.68c0,15.25-12.45,27.76-27.76,27.76H130.52c-15.25,0-27.76-12.51-27.76-27.76v-262.68c0-15.25,12.51-27.76,27.76-27.76h0Z"/>
        <path class="cls-53" d="M130.95,250.82h485.22c15.31,0,27.76,12.51,27.76,27.76v262.69c0,15.25-12.45,27.76-27.76,27.76H130.95c-15.25,0-27.76-12.51-27.76-27.76v-262.69c0-15.25,12.51-27.76,27.76-27.76h0Z"/>
        <path class="cls-62" d="M131.38,250.32h485.22c15.3,0,27.76,12.51,27.76,27.76v262.68c0,15.25-12.45,27.76-27.76,27.76H131.38c-15.25,0-27.76-12.51-27.76-27.76v-262.68c0-15.25,12.51-27.76,27.76-27.76h0Z"/>
        <path class="cls-34" d="M131.8,249.81h485.22c15.3,0,27.76,12.51,27.76,27.76v262.68c0,15.25-12.45,27.76-27.76,27.76H131.8c-15.25,0-27.76-12.51-27.76-27.76v-262.68c0-15.25,12.51-27.76,27.76-27.76h0Z"/>
        <path class="cls-57" d="M132.23,249.31h485.22c15.3,0,27.76,12.51,27.76,27.76v262.68c0,15.25-12.45,27.76-27.76,27.76H132.23c-15.25,0-27.76-12.51-27.76-27.76v-262.68c0-15.25,12.51-27.76,27.76-27.76h0Z"/>
        <path class="cls-2" d="M132.66,248.81h485.22c15.3,0,27.76,12.51,27.76,27.76v262.68c0,15.25-12.45,27.76-27.76,27.76H132.66c-15.25,0-27.76-12.51-27.76-27.76v-262.68c0-15.25,12.51-27.76,27.76-27.76h0Z"/>
        <path class="cls-75" d="M133.08,248.3h485.22c15.31,0,27.76,12.51,27.76,27.76v262.69c0,15.25-12.45,27.76-27.76,27.76H133.08c-15.25,0-27.76-12.51-27.76-27.76v-262.69c0-15.24,12.51-27.76,27.76-27.76h0Z"/>
        <path class="cls-35" d="M133.51,247.8h485.22c15.3,0,27.76,12.51,27.76,27.76v262.68c0,15.25-12.45,27.76-27.76,27.76H133.51c-15.25,0-27.76-12.51-27.76-27.76v-262.68c0-15.25,12.51-27.76,27.76-27.76h0Z"/>
        <path class="cls-10" d="M133.94,247.29h485.22c15.31,0,27.76,12.51,27.76,27.76v262.68c0,15.25-12.45,27.76-27.76,27.76H133.94c-15.24,0-27.76-12.51-27.76-27.76v-262.68c0-15.24,12.51-27.76,27.76-27.76h0Z"/>
        <path class="cls-60" d="M134.36,246.79h485.22c15.3,0,27.76,12.51,27.76,27.76v262.68c0,15.25-12.45,27.76-27.76,27.76H134.36c-15.24,0-27.76-12.51-27.76-27.76v-262.68c0-15.24,12.51-27.76,27.76-27.76h0Z"/>
        <path class="cls-12" d="M134.79,246.28h485.22c15.31,0,27.76,12.51,27.76,27.76v262.68c0,15.25-12.45,27.76-27.76,27.76H134.79c-15.25,0-27.76-12.51-27.76-27.76v-262.68c0-15.25,12.51-27.76,27.76-27.76h0Z"/>
        <path class="cls-29" d="M135.22,245.78h485.22c15.3,0,27.76,12.51,27.76,27.76v262.68c0,15.25-12.45,27.76-27.76,27.76H135.22c-15.25,0-27.76-12.51-27.76-27.76v-262.68c0-15.25,12.51-27.76,27.76-27.76h0Z"/>
        <path class="cls-71" d="M135.64,245.27h485.22c15.3,0,27.76,12.51,27.76,27.76v262.68c0,15.25-12.45,27.76-27.76,27.76H135.64c-15.25,0-27.76-12.51-27.76-27.76v-262.68c0-15.25,12.51-27.76,27.76-27.76h0Z"/>
        <path class="cls-54" d="M136.07,244.77h485.22c15.3,0,27.76,12.51,27.76,27.76v262.68c0,15.25-12.45,27.76-27.76,27.76H136.07c-15.25,0-27.76-12.51-27.76-27.76v-262.68c0-15.25,12.51-27.76,27.76-27.76h0Z"/>
        <path class="cls-46" d="M136.5,244.26h485.22c15.3,0,27.76,12.51,27.76,27.76v262.69c0,15.25-12.45,27.76-27.76,27.76H136.5c-15.24,0-27.76-12.51-27.76-27.76v-262.69c0-15.24,12.51-27.76,27.76-27.76h0Z"/>
        <path class="cls-15" d="M136.92,243.76h485.22c15.31,0,27.76,12.51,27.76,27.76v262.69c0,15.25-12.45,27.76-27.76,27.76H136.92c-15.25,0-27.76-12.51-27.76-27.76v-262.69c0-15.25,12.51-27.76,27.76-27.76h0Z"/>
        <path class="cls-24" d="M137.35,243.25h485.22c15.31,0,27.76,12.51,27.76,27.76v262.68c0,15.25-12.45,27.76-27.76,27.76H137.35c-15.25,0-27.76-12.51-27.76-27.76v-262.68c0-15.25,12.51-27.76,27.76-27.76h0Z"/>
        <path class="cls-51" d="M137.77,242.75h485.22c15.31,0,27.76,12.51,27.76,27.76v262.68c0,15.25-12.45,27.76-27.76,27.76H137.77c-15.24,0-27.76-12.51-27.76-27.76v-262.68c0-15.25,12.51-27.76,27.76-27.76h0Z"/>
        <path class="cls-37" d="M138.2,242.25h485.22c15.31,0,27.76,12.51,27.76,27.76v262.69c0,15.25-12.45,27.76-27.76,27.76H138.2c-15.24,0-27.76-12.51-27.76-27.76v-262.69c0-15.24,12.51-27.76,27.76-27.76h0Z"/>
        <path class="cls-52" d="M138.63,241.74h485.22c15.31,0,27.76,12.51,27.76,27.76v262.68c0,15.25-12.45,27.76-27.76,27.76H138.63c-15.24,0-27.76-12.51-27.76-27.76v-262.68c0-15.25,12.51-27.76,27.76-27.76h0Z"/>
        <path class="cls-45" d="M139.06,241.24h485.22c15.31,0,27.76,12.51,27.76,27.76v262.68c0,15.25-12.45,27.76-27.76,27.76H139.06c-15.25,0-27.76-12.51-27.76-27.76v-262.68c0-15.25,12.51-27.76,27.76-27.76h0Z"/>
        <path class="cls-77" d="M139.48,240.73h485.22c15.31,0,27.76,12.51,27.76,27.76v262.69c0,15.25-12.45,27.76-27.76,27.76H139.48c-15.24,0-27.76-12.51-27.76-27.76v-262.69c0-15.25,12.51-27.76,27.76-27.76h0Z"/>
        <path class="cls-36" d="M139.91,240.23h485.22c15.31,0,27.76,12.51,27.76,27.76v262.68c0,15.25-12.45,27.76-27.76,27.76H139.91c-15.25,0-27.76-12.51-27.76-27.76v-262.68c0-15.25,12.51-27.76,27.76-27.76h0Z"/>
        <path class="cls-72" d="M140.34,239.72h485.22c15.3,0,27.76,12.51,27.76,27.76v262.68c0,15.25-12.45,27.76-27.76,27.76H140.34c-15.24,0-27.76-12.51-27.76-27.76v-262.68c0-15.25,12.51-27.76,27.76-27.76h0Z"/>
        <path class="cls-40" d="M140.76,239.22h485.22c15.31,0,27.76,12.51,27.76,27.76v262.69c0,15.25-12.45,27.76-27.76,27.76H140.76c-15.25,0-27.76-12.51-27.76-27.76v-262.69c0-15.25,12.51-27.76,27.76-27.76h0Z"/>
        <path class="cls-47" d="M141.19,238.71h485.22c15.3,0,27.76,12.51,27.76,27.76v262.69c0,15.25-12.45,27.76-27.76,27.76H141.19c-15.25,0-27.76-12.51-27.76-27.76v-262.69c0-15.24,12.51-27.76,27.76-27.76h0Z"/>
        <path class="cls-31" d="M141.61,238.21h485.22c15.31,0,27.76,12.51,27.76,27.76v262.68c0,15.25-12.45,27.76-27.76,27.76H141.61c-15.24,0-27.76-12.51-27.76-27.76v-262.68c0-15.25,12.51-27.76,27.76-27.76h0Z"/>
        <path class="cls-9" d="M142.04,237.7h485.22c15.31,0,27.76,12.51,27.76,27.76v262.69c0,15.25-12.45,27.76-27.76,27.76H142.04c-15.24,0-27.76-12.51-27.76-27.76v-262.69c0-15.25,12.51-27.76,27.76-27.76h0Z"/>
        <path class="cls-67" d="M142.47,237.2h485.22c15.31,0,27.76,12.51,27.76,27.76v262.69c0,15.25-12.45,27.76-27.76,27.76H142.47c-15.24,0-27.76-12.51-27.76-27.76v-262.69c0-15.24,12.51-27.76,27.76-27.76h0Z"/>
        <path class="cls-27" d="M142.9,236.7h485.22c15.31,0,27.76,12.51,27.76,27.76v262.68c0,15.25-12.45,27.76-27.76,27.76H142.9c-15.24,0-27.76-12.51-27.76-27.76v-262.68c0-15.25,12.51-27.76,27.76-27.76h0Z"/>
        <path class="cls-66" d="M143.32,236.19h485.22c15.31,0,27.76,12.51,27.76,27.76v262.68c0,15.24-12.45,27.76-27.76,27.76H143.32c-15.24,0-27.76-12.51-27.76-27.76v-262.68c0-15.25,12.51-27.76,27.76-27.76h0Z"/>
        <path class="cls-19" d="M143.75,235.69h485.22c15.31,0,27.76,12.51,27.76,27.76v262.68c0,15.25-12.45,27.76-27.76,27.76H143.75c-15.24,0-27.76-12.51-27.76-27.76v-262.68c0-15.25,12.51-27.76,27.76-27.76h0Z"/>
        <path class="cls-78" d="M144.17,235.18h485.22c15.3,0,27.76,12.51,27.76,27.76v262.68c0,15.25-12.45,27.76-27.76,27.76H144.17c-15.24,0-27.76-12.51-27.76-27.76v-262.68c0-15.25,12.51-27.76,27.76-27.76h0Z"/>
        <path class="cls-38" d="M144.6,234.68h485.22c15.31,0,27.76,12.51,27.76,27.76v262.69c0,15.24-12.45,27.76-27.76,27.76H144.6c-15.25,0-27.76-12.51-27.76-27.76v-262.69c0-15.25,12.51-27.76,27.76-27.76h0Z"/>
        <path class="cls-6" d="M145.03,234.17h485.22c15.31,0,27.76,12.51,27.76,27.76v262.69c0,15.25-12.45,27.76-27.76,27.76H145.03c-15.25,0-27.76-12.51-27.76-27.76v-262.69c0-15.24,12.51-27.76,27.76-27.76h0Z"/>
        <path class="cls-8" d="M145.45,233.67h485.22c15.31,0,27.76,12.51,27.76,27.76v262.69c0,15.25-12.45,27.76-27.76,27.76H145.45c-15.24,0-27.76-12.51-27.76-27.76v-262.69c0-15.24,12.51-27.76,27.76-27.76h0Z"/>
        <path class="cls-59" d="M145.88,233.16h485.22c15.31,0,27.76,12.51,27.76,27.76v262.69c0,15.25-12.45,27.76-27.76,27.76H145.88c-15.25,0-27.76-12.51-27.76-27.76v-262.69c0-15.25,12.51-27.76,27.76-27.76h0Z"/>
        <path class="cls-26" d="M146.31,232.66h485.22c15.31,0,27.76,12.51,27.76,27.76v262.69c0,15.25-12.45,27.76-27.76,27.76H146.31c-15.25,0-27.76-12.51-27.76-27.76v-262.69c0-15.24,12.51-27.76,27.76-27.76h0Z"/>
        <path class="cls-4" d="M146.73,232.15h485.22c15.31,0,27.76,12.51,27.76,27.76v262.68c0,15.25-12.45,27.76-27.76,27.76H146.73c-15.24,0-27.76-12.51-27.76-27.76v-262.68c0-15.25,12.51-27.76,27.76-27.76h0Z"/>
        <path class="cls-79" d="M147.16,231.65h485.22c15.31,0,27.76,12.51,27.76,27.76v262.69c0,15.24-12.45,27.76-27.76,27.76H147.16c-15.24,0-27.76-12.51-27.76-27.76v-262.69c0-15.25,12.51-27.76,27.76-27.76h0Z"/>
        <path class="cls-14" d="M147.59,231.14h485.22c15.31,0,27.76,12.51,27.76,27.76v262.69c0,15.25-12.45,27.76-27.76,27.76H147.59c-15.24,0-27.76-12.51-27.76-27.76v-262.69c0-15.24,12.51-27.76,27.76-27.76h0Z"/>
        <path class="cls-39" d="M148.01,230.64h485.22c15.31,0,27.76,12.51,27.76,27.76v262.69c0,15.25-12.45,27.76-27.76,27.76H148.01c-15.24,0-27.76-12.51-27.76-27.76v-262.69c0-15.24,12.51-27.76,27.76-27.76h0Z"/>
        <path class="cls-1" d="M148.44,230.14h485.22c15.31,0,27.76,12.51,27.76,27.76v262.69c0,15.24-12.45,27.76-27.76,27.76H148.44c-15.24,0-27.76-12.51-27.76-27.76v-262.69c0-15.25,12.51-27.76,27.76-27.76h0Z"/>
        <path class="cls-48" d="M148.87,229.63h485.22c15.31,0,27.76,12.51,27.76,27.76v262.69c0,15.25-12.45,27.76-27.76,27.76H148.87c-15.24,0-27.76-12.51-27.76-27.76v-262.69c0-15.25,12.51-27.76,27.76-27.76h0Z"/>
        <path class="cls-43" d="M149.29,229.13h485.22c15.31,0,27.76,12.51,27.76,27.76v262.69c0,15.25-12.45,27.76-27.76,27.76H149.29c-15.24,0-27.76-12.51-27.76-27.76v-262.69c0-15.25,12.51-27.76,27.76-27.76h0Z"/>
        <path class="cls-13" d="M149.72,228.62h485.22c15.31,0,27.76,12.51,27.76,27.76v262.69c0,15.24-12.45,27.76-27.76,27.76H149.72c-15.24,0-27.76-12.51-27.76-27.76v-262.69c0-15.25,12.51-27.76,27.76-27.76h0Z"/>
        <path class="cls-63" d="M150.15,228.12h485.22c15.31,0,27.76,12.51,27.76,27.76v262.69c0,15.25-12.45,27.76-27.76,27.76H150.15c-15.25,0-27.76-12.51-27.76-27.76V255.87c0-15.25,12.51-27.76,27.76-27.76h0Z"/>
        <path class="cls-42" d="M150.58,227.61h485.22c15.31,0,27.76,12.51,27.76,27.76v262.68c0,15.25-12.45,27.76-27.76,27.76H150.58c-15.25,0-27.76-12.51-27.76-27.76V255.37c0-15.25,12.51-27.76,27.76-27.76h0Z"/>
        <path class="cls-20" d="M151,227.11h485.22c15.31,0,27.76,12.51,27.76,27.76v262.69c0,15.24-12.45,27.76-27.76,27.76H151c-15.24,0-27.76-12.51-27.76-27.76V254.87c0-15.25,12.51-27.76,27.76-27.76h0Z"/>
        <path class="cls-68" d="M151.43,226.6h485.22c15.31,0,27.76,12.51,27.76,27.76v262.69c0,15.25-12.45,27.76-27.76,27.76H151.43c-15.24,0-27.76-12.51-27.76-27.76V254.36c0-15.25,12.51-27.76,27.76-27.76h0Z"/>
        <path class="cls-41" d="M151.85,226.1h485.22c15.31,0,27.76,12.51,27.76,27.76v262.68c0,15.25-12.45,27.76-27.76,27.76H151.85c-15.24,0-27.76-12.51-27.76-27.76V253.86c0-15.25,12.51-27.76,27.76-27.76h0Z"/>
        <path class="cls-3" d="M152.28,225.59h485.22c15.31,0,27.76,12.51,27.76,27.76v262.69c0,15.24-12.45,27.76-27.76,27.76H152.28c-15.24,0-27.76-12.51-27.76-27.76V253.35c0-15.25,12.51-27.76,27.76-27.76h0Z"/>
        <path class="cls-61" d="M152.71,225.09h485.22c15.31,0,27.76,12.51,27.76,27.76v262.69c0,15.24-12.45,27.76-27.76,27.76H152.71c-15.24,0-27.76-12.51-27.76-27.76V252.85c0-15.25,12.51-27.76,27.76-27.76h0Z"/>
        <path class="cls-65" d="M153.13,224.59h485.22c15.31,0,27.76,12.51,27.76,27.76v262.68c0,15.25-12.45,27.76-27.76,27.76H153.13c-15.24,0-27.76-12.51-27.76-27.76V252.34c0-15.25,12.51-27.76,27.76-27.76h0Z"/>
        <path class="cls-25" d="M153.56,224.08h485.22c15.31,0,27.76,12.51,27.76,27.76v262.69c0,15.25-12.45,27.76-27.76,27.76H153.56c-15.24,0-27.76-12.51-27.76-27.76V251.84c0-15.25,12.51-27.76,27.76-27.76h0Z"/>
        <path class="cls-50" d="M153.99,223.58h485.22c15.31,0,27.76,12.51,27.76,27.76v262.69c0,15.24-12.45,27.76-27.76,27.76H153.99c-15.24,0-27.76-12.51-27.76-27.76V251.33c0-15.25,12.51-27.76,27.76-27.76h0Z"/>
        <path class="cls-23" d="M154.41,223.07h485.22c15.31,0,27.76,12.51,27.76,27.76v262.69c0,15.24-12.45,27.76-27.76,27.76H154.41c-15.24,0-27.76-12.51-27.76-27.76V250.83c0-15.25,12.51-27.76,27.76-27.76h0Z"/>
        <path class="cls-69" d="M154.84,222.57h485.22c15.31,0,27.76,12.51,27.76,27.76v262.68c0,15.25-12.45,27.76-27.76,27.76H154.84c-15.24,0-27.76-12.51-27.76-27.76V250.32c0-15.25,12.51-27.76,27.76-27.76h0Z"/>
        <path class="cls-74" d="M155.27,222.06h485.22c15.31,0,27.76,12.51,27.76,27.76v262.68c0,15.25-12.45,27.76-27.76,27.76H155.27c-15.24,0-27.76-12.51-27.76-27.76V249.82c0-15.25,12.51-27.76,27.76-27.76h0Z"/>
        <path class="cls-49" d="M155.69,221.56h485.22c15.31,0,27.76,12.51,27.76,27.76v262.69c0,15.24-12.45,27.76-27.76,27.76H155.69c-15.24,0-27.76-12.51-27.76-27.76V249.31c0-15.25,12.51-27.76,27.76-27.76h0Z"/>
        <path class="cls-76" d="M156.12,221.05h485.22c15.31,0,27.76,12.51,27.76,27.76v262.69c0,15.25-12.45,27.76-27.76,27.76H156.12c-15.24,0-27.76-12.51-27.76-27.76V248.81c0-15.24,12.51-27.76,27.76-27.76h0Z"/>
        <path class="cls-32" d="M156.55,220.55h485.22c15.31,0,27.76,12.51,27.76,27.76v262.69c0,15.24-12.45,27.76-27.76,27.76H156.55c-15.24,0-27.76-12.51-27.76-27.76V248.31c0-15.25,12.51-27.76,27.76-27.76h0Z"/>
        <path class="cls-7" d="M156.97,220.04h485.22c15.31,0,27.76,12.51,27.76,27.76v262.69c0,15.24-12.45,27.76-27.76,27.76H156.97c-15.24,0-27.76-12.51-27.76-27.76V247.8c0-15.24,12.51-27.76,27.76-27.76h0Z"/>
        <path class="cls-55" d="M157.4,219.54h485.22c15.31,0,27.76,12.51,27.76,27.76v262.69c0,15.24-12.45,27.76-27.76,27.76H157.4c-15.24,0-27.76-12.51-27.76-27.76V247.3c0-15.25,12.51-27.76,27.76-27.76h0Z"/>
        <path class="cls-33" d="M157.83,219.04h485.22c15.31,0,27.76,12.51,27.76,27.76v262.69c0,15.24-12.45,27.76-27.76,27.76H157.83c-15.24,0-27.76-12.51-27.76-27.76V246.79c0-15.24,12.51-27.76,27.76-27.76h0Z"/>
        <path class="cls-11" d="M158.25,218.53h485.22c15.31,0,27.76,12.51,27.76,27.76v262.69c0,15.24-12.45,27.76-27.76,27.76H158.25c-15.24,0-27.76-12.51-27.76-27.76V246.29c0-15.25,12.51-27.76,27.76-27.76h0Z"/>
        <path class="cls-73" d="M158.68,218.03h485.22c15.31,0,27.76,12.51,27.76,27.76v262.69c0,15.24-12.45,27.75-27.76,27.75H158.68c-15.24,0-27.76-12.51-27.76-27.75V245.78c0-15.24,12.51-27.76,27.76-27.76h0Z"/>
        <path class="cls-18" d="M159.11,217.52h485.22c15.31,0,27.76,12.51,27.76,27.76v262.69c0,15.24-12.45,27.76-27.76,27.76H159.11c-15.24,0-27.76-12.51-27.76-27.76V245.28c0-15.25,12.51-27.76,27.76-27.76h0Z"/>
        <path class="cls-30" d="M159.53,217.02h485.22c15.31,0,27.76,12.51,27.76,27.76v262.69c0,15.24-12.45,27.76-27.76,27.76H159.53c-15.24,0-27.76-12.51-27.76-27.76V244.77c0-15.25,12.51-27.76,27.76-27.76h0Z"/>
        <path class="cls-58" d="M159.96,216.51h485.22c15.31,0,27.76,12.51,27.76,27.76v262.69c0,15.25-12.45,27.76-27.76,27.76H159.96c-15.24,0-27.76-12.51-27.76-27.76V244.27c0-15.25,12.51-27.76,27.76-27.76h0Z"/>
        <path class="cls-22" d="M160.39,216.01h485.22c15.31,0,27.76,12.51,27.76,27.76v262.69c0,15.24-12.45,27.75-27.76,27.75H160.39c-15.24,0-27.76-12.51-27.76-27.75V243.76c0-15.25,12.51-27.76,27.76-27.76h0Z"/>
        <path class="cls-22" d="M160.81,215.5h485.22c15.31,0,27.76,12.51,27.76,27.76v262.69c0,15.24-12.45,27.76-27.76,27.76H160.81c-15.24,0-27.76-12.51-27.76-27.76V243.26c0-15.25,12.51-27.76,27.76-27.76h0Z"/>
      </g>
      <g class="cls-86">
        <g>
          <rect class="cls-80" x="128.43" y="213.07" width="181.05" height="319.85"/>
          <rect class="cls-81" x="309.48" y="213.07" width="181.05" height="319.85"/>
          <rect class="cls-84" x="490.52" y="213.07" width="181.05" height="319.85"/>
        </g>
      </g>
      <g>
        <path class="cls-21" d="M160.81,221.7h485.22c11.9,0,21.62,9.72,21.62,21.56v262.69c0,11.84-9.72,21.56-21.62,21.56H160.81c-11.84,0-21.56-9.72-21.56-21.56V243.26c0-11.84,9.72-21.56,21.56-21.56h0Z"/>
        <path class="cls-70" d="M160.81,221.7h485.22c11.9,0,21.62,9.72,21.62,21.56v262.69c0,11.84-9.72,21.56-21.62,21.56H160.81c-11.84,0-21.56-9.72-21.56-21.56V243.26c0-11.84,9.72-21.56,21.56-21.56h0ZM646.04,215.5H160.81c-15.24,0-27.76,12.51-27.76,27.76v262.69c0,15.24,12.51,27.76,27.76,27.76h485.22c15.31,0,27.76-12.51,27.76-27.76V243.26c0-15.25-12.45-27.76-27.76-27.76h0Z"/>
      </g>
    </g>
  </g>
</svg>