<svg width="14" height="16" viewBox="0 0 14 16" fill="none" xmlns="http://www.w3.org/2000/svg">
<path d="M6.05905 15.1046C6.23787 15.2031 6.42997 15.2591 6.63603 15.2591C6.8421 15.2591 7.04816 15.2024 7.21302 15.133L12.6951 11.8945C13.052 11.6841 13.2721 11.2917 13.2721 10.8709V4.4081C13.2721 3.98806 13.052 3.59494 12.6951 3.38527L7.21302 0.146768C7.03554 0.0504155 6.83734 0 6.63603 0C6.43472 0 6.23652 0.0504155 6.05905 0.146768L0.576987 3.38527C0.401052 3.48976 0.255196 3.63918 0.153959 3.81865C0.052722 3.99811 -0.00036072 4.20135 1.8449e-06 4.4081V10.8709C1.8449e-06 11.2917 0.220039 11.6841 0.576987 11.8945L2.01945 12.736C2.72008 13.0859 2.96805 13.0859 3.28379 13.0859C4.31412 13.0859 4.90438 12.4413 4.90438 11.3335V4.95494C4.90384 4.91082 4.88642 4.86865 4.85579 4.83733C4.82516 4.806 4.78372 4.78798 4.74022 4.78706H4.0396C3.99598 4.78779 3.95436 4.80574 3.92358 4.83708C3.8928 4.86843 3.87528 4.9107 3.87474 4.95494V11.3335C3.87474 11.8244 3.36622 12.3152 2.55522 11.8945L1.05827 11.0112C1.00239 10.9829 0.975847 10.9134 0.975847 10.8568V4.39464C0.975847 4.33798 1.00309 4.26785 1.05827 4.24023L6.54033 1.01589C6.58085 0.98756 6.65 0.98756 6.70449 1.01589L12.1872 4.24023C12.2417 4.26856 12.2697 4.32452 12.2697 4.39464V10.8568C12.2697 10.9276 12.2417 10.9829 12.1872 11.0112L6.70449 14.2497C6.66327 14.278 6.59482 14.278 6.53963 14.2497L5.13908 13.394C5.09787 13.3657 5.04269 13.3515 5.00147 13.3799C4.61728 13.6044 4.54813 13.632 4.17721 13.7581C4.09478 13.7864 3.95787 13.8424 4.23239 13.9968L6.05905 15.1046ZM5.44085 8.74027C5.44085 9.69368 5.93541 10.815 8.33974 10.815C10.0707 10.815 11.0738 10.1137 11.0738 8.88052C11.0738 7.67493 10.2768 7.35193 8.58702 7.1281C6.88261 6.90356 6.70449 6.77748 6.70449 6.37089C6.70449 6.03443 6.85607 5.58606 8.11971 5.58606C9.24644 5.58606 9.67184 5.83823 9.83739 6.60889C9.84523 6.64394 9.86427 6.67538 9.89156 6.69832C9.91885 6.72125 9.95286 6.73439 9.98827 6.73568H10.7161C10.7581 6.73568 10.7986 6.70735 10.8265 6.67902C10.8532 6.64254 10.8676 6.59835 10.8677 6.55294C10.7581 5.2071 9.89258 4.59085 8.13368 4.59085C6.56758 4.59085 5.63294 5.26377 5.63294 6.39923C5.63294 7.61827 6.56758 7.95473 8.06452 8.10914C9.86463 8.29189 10.0022 8.55823 10.0022 8.92231C10.0022 9.55273 9.50769 9.81977 8.35371 9.81977C6.89728 9.81977 6.58085 9.45498 6.47118 8.71193C6.47118 8.62835 6.40272 8.57168 6.3203 8.57168H5.6057C5.56196 8.57242 5.52025 8.59046 5.48945 8.62196C5.45865 8.65346 5.44121 8.69591 5.44085 8.74027Z" fill="#008573"/>
</svg>
