<svg width="12" height="12" viewBox="0 0 12 12" fill="none" xmlns="http://www.w3.org/2000/svg">
<path d="M10.9389 4.77634C11.0874 4.37501 11.1248 3.97368 11.0874 3.57294C11.0506 3.17219 10.9021 2.77086 10.7161 2.40628C10.3822 1.8597 9.89918 1.4222 9.34249 1.16671C8.74838 0.911793 8.11683 0.838877 7.48587 0.984709C7.18881 0.693045 6.85433 0.437547 6.483 0.255549C6.11168 0.0735507 5.66609 5.14173e-05 5.25793 5.14173e-05C4.62037 -0.00360299 3.99746 0.187625 3.47557 0.547213C2.95572 0.91121 2.5844 1.42221 2.39844 2.00553C1.95285 2.11462 1.58152 2.2972 1.2102 2.51595C0.876306 2.77086 0.616082 3.09927 0.393287 3.4271C0.0593929 3.97426 -0.0523014 4.59376 0.0219634 5.21384C0.0966503 5.83209 0.35492 6.41512 0.764612 6.89032C0.62427 7.27555 0.573519 7.68673 0.616082 8.09373C0.653511 8.49506 0.802041 8.8958 0.987406 9.26038C1.32189 9.80754 1.80432 10.245 2.3616 10.5C2.95572 10.7555 3.58667 10.8284 4.21822 10.6825C4.51528 10.9742 4.84918 11.2291 5.2205 11.4117C5.59182 11.5943 6.03741 11.6666 6.44617 11.6666C7.08366 11.6704 7.70657 11.4794 8.22852 11.12C8.74838 10.7555 9.1197 10.245 9.30506 9.66171C9.72461 9.58346 10.1192 9.40853 10.4565 9.1513C10.7904 8.8958 11.0874 8.60414 11.2734 8.23956C11.6073 7.69298 11.719 7.0729 11.6447 6.45341C11.5704 5.83333 11.3476 5.25059 10.9389 4.77634ZM6.483 10.9007C5.88888 10.9007 5.44329 10.7181 5.03514 10.3903C5.03514 10.3903 5.07197 10.3535 5.1094 10.3535L7.48587 9.00488C7.55182 8.97566 7.60463 8.9238 7.6344 8.85905C7.66413 8.80288 7.67691 8.73953 7.67124 8.67647V5.39583L8.67411 5.97916V8.67705C8.68433 8.96571 8.6352 9.25342 8.52964 9.52301C8.42409 9.79261 8.26429 10.0386 8.05977 10.2462C7.85526 10.4538 7.61023 10.6188 7.33932 10.7313C7.06841 10.8439 6.77717 10.9011 6.483 10.9007ZM1.69322 8.8958C1.43299 8.45831 1.32189 7.94789 1.43299 7.43748C1.43299 7.43748 1.47042 7.47423 1.50726 7.47423L3.88373 8.82289C3.94077 8.85259 4.00539 8.86536 4.06969 8.85964C4.14396 8.85964 4.21822 8.85964 4.25506 8.82289L7.15139 7.18257V8.31247L4.73808 9.69788C4.48787 9.84053 4.21145 9.93329 3.92466 9.97083C3.63787 10.0084 3.34635 9.98995 3.06682 9.91663C2.4727 9.77079 1.99028 9.40621 1.69322 8.8958ZM1.06167 3.82843C1.32387 3.39243 1.7302 3.05771 2.21307 2.87994V5.65133C2.21307 5.72366 2.21307 5.79716 2.24991 5.83333C2.27968 5.89808 2.33249 5.94993 2.39844 5.97916L5.29476 7.62006L4.29249 8.20339L1.91601 6.85415C1.66293 6.71375 1.44073 6.52545 1.26226 6.30016C1.0838 6.07487 0.952615 5.81707 0.876306 5.54167C0.727776 4.99509 0.764612 4.33884 1.06167 3.82843ZM9.26823 5.6875L6.3719 4.04718L7.37418 3.46385L9.75065 4.81251C10.122 5.03125 10.419 5.32292 10.605 5.6875C10.791 6.05208 10.9021 6.45341 10.8646 6.8909C10.829 7.30159 10.6744 7.69367 10.419 8.02081C10.1594 8.34922 9.82492 8.60414 9.41676 8.74997V5.97916C9.41676 5.90625 9.41676 5.83333 9.37933 5.79716C9.37933 5.79716 9.34249 5.72367 9.26823 5.6875ZM10.2705 4.22918C10.2705 4.22918 10.2337 4.19301 10.1962 4.19301L7.81977 2.84378C7.7455 2.80761 7.70867 2.80761 7.6344 2.80761C7.56014 2.80761 7.48587 2.80761 7.44844 2.84378L4.55212 4.48468V3.35419L6.96602 1.96878C7.33734 1.75004 7.7455 1.67712 8.19109 1.67712C8.59985 1.67712 9.00801 1.82295 9.37933 2.07845C9.71382 2.33336 10.0109 2.66178 10.1594 3.02636C10.3079 3.39094 10.3448 3.82843 10.2705 4.22918ZM4.03226 6.27083L3.02999 5.6875V2.95344C3.02999 2.55211 3.14109 2.11462 3.36388 1.78679C3.58667 1.42221 3.92116 1.16671 4.29249 0.984709C4.67091 0.798191 5.09981 0.734269 5.51756 0.802127C5.92631 0.838877 6.33447 1.02088 6.66896 1.27637C6.66896 1.27637 6.63153 1.31254 6.5947 1.31254L4.21822 2.66178C4.15228 2.69101 4.09946 2.74286 4.06969 2.80761C4.03226 2.88052 4.03226 2.91669 4.03226 2.98961V6.27083ZM4.55212 5.10417L5.85205 4.37501L7.15139 5.10417V6.56249L5.85205 7.29165L4.55212 6.56249V5.10417Z" fill="#008573"/>
</svg>
