<svg width="24" height="24" viewBox="0 0 24 24" fill="none" xmlns="http://www.w3.org/2000/svg">
<path d="M6.25 17V10C6.25 9.58579 6.58579 9.25 7 9.25C7.41421 9.25 7.75 9.58579 7.75 10V17C7.75 17.4142 7.41421 17.75 7 17.75C6.58579 17.75 6.25 17.4142 6.25 17ZM16.25 17V13C16.25 12.7045 16.1922 12.4117 16.0791 12.1387C15.966 11.8657 15.7997 11.6181 15.5908 11.4092C15.3819 11.2003 15.1343 11.034 14.8613 10.9209C14.5883 10.8078 14.2955 10.75 14 10.75C13.7045 10.75 13.4117 10.8078 13.1387 10.9209C12.8657 11.034 12.6181 11.2003 12.4092 11.4092C12.2003 11.6181 12.034 11.8657 11.9209 12.1387C11.8078 12.4117 11.75 12.7045 11.75 13V17C11.75 17.4142 11.4142 17.75 11 17.75C10.5858 17.75 10.25 17.4142 10.25 17V10C10.25 9.58579 10.5858 9.25 11 9.25C11.4142 9.25 11.75 9.58579 11.75 10V10.001C12.0006 9.81296 12.2737 9.65561 12.5645 9.53516C13.0194 9.3467 13.5075 9.25 14 9.25C14.4925 9.25 14.9806 9.3467 15.4355 9.53516C15.8904 9.72361 16.3032 10.0005 16.6514 10.3486C16.9995 10.6968 17.2764 11.1096 17.4648 11.5645C17.6533 12.0194 17.75 12.5075 17.75 13V17C17.75 17.4142 17.4142 17.75 17 17.75C16.5858 17.75 16.25 17.4142 16.25 17Z" fill="#008573"/>
<path d="M7.00781 6C7.5601 6 8.00781 6.44772 8.00781 7C8.00781 7.55228 7.5601 8 7.00781 8H6.99902C6.44674 8 5.99902 7.55228 5.99902 7C5.99902 6.44772 6.44674 6 6.99902 6H7.00781Z" fill="#008573"/>
<path d="M20.75 12C20.75 9.73948 20.7486 8.11958 20.583 6.8877C20.4203 5.67734 20.112 4.95381 19.5791 4.4209C19.0462 3.88803 18.3228 3.5797 17.1123 3.41699C15.8803 3.25139 14.2602 3.25 12 3.25C9.73948 3.25 8.11958 3.25144 6.8877 3.41699C5.67734 3.57969 4.95381 3.88799 4.4209 4.4209C3.88803 4.95376 3.5797 5.67719 3.41699 6.8877C3.25139 8.11975 3.25 9.73981 3.25 12C3.25 14.2605 3.25144 15.8804 3.41699 17.1123C3.57969 18.3227 3.88799 19.0462 4.4209 19.5791C4.95376 20.112 5.67719 20.4203 6.8877 20.583C8.11975 20.7486 9.73981 20.75 12 20.75C14.2605 20.75 15.8804 20.7486 17.1123 20.583C18.3227 20.4203 19.0462 20.112 19.5791 19.5791C20.112 19.0462 20.4203 18.3228 20.583 17.1123C20.7486 15.8803 20.75 14.2602 20.75 12ZM22.25 12C22.25 14.2178 22.2515 15.9573 22.0693 17.3125C21.8843 18.689 21.4977 19.7816 20.6396 20.6396C19.7816 21.4977 18.6891 21.8843 17.3125 22.0693C15.9574 22.2515 14.2183 22.25 12 22.25C9.78219 22.25 8.0427 22.2515 6.6875 22.0693C5.31101 21.8843 4.21838 21.4977 3.36035 20.6396C2.50228 19.7816 2.11572 18.6891 1.93066 17.3125C1.74851 15.9574 1.75 14.2183 1.75 12C1.75 9.78219 1.74851 8.0427 1.93066 6.6875C2.11573 5.31101 2.50232 4.21838 3.36035 3.36035C4.21843 2.50228 5.3109 2.11572 6.6875 1.93066C8.04258 1.74851 9.7817 1.75 12 1.75C14.2178 1.75 15.9573 1.74851 17.3125 1.93066C18.689 2.11573 19.7816 2.50232 20.6396 3.36035C21.4977 4.21843 21.8843 5.3109 22.0693 6.6875C22.2515 8.04258 22.25 9.7817 22.25 12Z" fill="#008573"/>
</svg>
