<svg width="24" height="24" viewBox="0 0 24 24" fill="none" xmlns="http://www.w3.org/2000/svg">
<path d="M20.6217 3.28328L7.0554 1.02431C6.6202 0.952089 6.17239 1.04582 5.81046 1.28489C5.44853 1.52396 5.20211 1.88879 5.12539 2.29915L2.02674 18.8977C1.98884 19.1011 1.99381 19.3094 2.04135 19.511C2.0889 19.7125 2.17809 19.9032 2.30384 20.0723C2.42959 20.2413 2.58942 20.3853 2.7742 20.496C2.95899 20.6067 3.16511 20.6821 3.38077 20.7177L16.9471 22.9766C17.1628 23.0125 17.3839 23.0079 17.5978 22.9632C17.8116 22.9184 18.014 22.8343 18.1933 22.7157C18.3727 22.5971 18.5255 22.4464 18.643 22.2721C18.7605 22.0977 18.8404 21.9033 18.8782 21.6998L21.9768 5.10126C22.0527 4.69075 21.9526 4.2686 21.6985 3.92768C21.4444 3.58675 21.0571 3.35496 20.6217 3.28328ZM17.2346 21.4287L3.6672 19.1698L6.76585 2.57121L20.3322 4.83019L17.2346 21.4287ZM7.97302 5.16609C8.01161 4.96098 8.135 4.77873 8.31606 4.65938C8.49711 4.54004 8.72101 4.49337 8.93854 4.52965L17.5835 5.96851C17.789 6.00245 17.9734 6.10782 18.1005 6.2638C18.2276 6.41978 18.288 6.61503 18.2698 6.81097C18.2516 7.00691 18.1562 7.1893 18.0023 7.32209C17.8484 7.45488 17.6473 7.52843 17.4387 7.52819C17.3899 7.52811 17.3411 7.52416 17.2929 7.5164L8.64795 6.07655C8.43044 6.04016 8.23716 5.9238 8.1106 5.75308C7.98404 5.58235 7.93455 5.37121 7.97302 5.16609ZM7.39599 8.26186C7.41498 8.16022 7.45503 8.0631 7.51383 7.97605C7.57264 7.889 7.64905 7.81373 7.73872 7.75453C7.82838 7.69534 7.92953 7.65338 8.03639 7.63106C8.14326 7.60874 8.25373 7.60649 8.36152 7.62444L17.0065 9.06429C17.2134 9.09692 17.3996 9.20194 17.528 9.35838C17.6564 9.51482 17.7175 9.71117 17.6991 9.90822C17.6806 10.1053 17.5841 10.2885 17.4287 10.4214C17.2733 10.5542 17.0704 10.6269 16.8607 10.6249C16.8114 10.625 16.7622 10.6207 16.7138 10.6122L8.06884 9.17331C7.8515 9.13647 7.65856 9.01978 7.5324 8.84888C7.40624 8.67799 7.35718 8.46685 7.39599 8.26186ZM6.81793 11.3567C6.85725 11.1521 6.98094 10.9706 7.16191 10.8518C7.34288 10.7331 7.56638 10.6868 7.78345 10.7232L12.1038 11.4392C12.3092 11.4731 12.4936 11.5784 12.6207 11.7343C12.7478 11.8901 12.8082 12.0853 12.7902 12.2811C12.7721 12.477 12.6769 12.6594 12.5232 12.7922C12.3695 12.9251 12.1686 12.9988 11.9601 12.9988C11.9112 12.9988 11.8625 12.9949 11.8143 12.9871L7.49182 12.2671C7.2745 12.2305 7.08148 12.1141 6.95513 11.9433C6.82878 11.7726 6.77944 11.5616 6.81793 11.3567Z" fill="#008573"/>
</svg>
