<svg width="24" height="24" viewBox="0 0 24 24" fill="none" xmlns="http://www.w3.org/2000/svg">
<path d="M15.5554 21.5V18.3535C15.5556 17.756 15.3479 17.1766 14.9685 16.7149C14.7958 16.5045 14.7506 16.2171 14.8503 15.9639C14.9502 15.7107 15.1792 15.5311 15.449 15.4951C16.8709 15.3058 18.0115 14.8788 18.7947 14.127C19.5582 13.3938 20.0778 12.259 20.0779 10.4414C20.0779 9.78244 19.782 8.9358 19.4324 8.18947C19.2641 7.83021 19.0952 7.51828 18.9685 7.29689C18.9055 7.18683 18.8539 7.09957 18.8181 7.04103C18.8003 7.01189 18.786 6.98983 18.7771 6.9756C18.7726 6.96849 18.7693 6.96306 18.7673 6.95997C18.7664 6.95851 18.7657 6.95756 18.7654 6.95705C18.6274 6.74276 18.6083 6.47328 18.7136 6.24122C18.9123 5.80401 19.0257 5.14857 19.0173 4.53712C19.0135 4.25992 18.983 4.01917 18.9382 3.834C18.7776 3.87147 18.5816 3.9226 18.3601 3.99611C17.7034 4.21409 16.8292 4.61178 15.9675 5.32716C15.7758 5.48633 15.5173 5.53952 15.2781 5.46974C13.5309 4.95949 11.7462 5.01032 10.0222 5.47462C9.78708 5.53795 9.53582 5.48261 9.34839 5.32716C8.48659 4.61165 7.61227 4.2141 6.95581 3.99611C6.73348 3.92228 6.53667 3.87151 6.37573 3.834C6.33092 4.01894 6.30133 4.25993 6.29761 4.53712C6.28942 5.14789 6.40323 5.8024 6.60229 6.24025C6.7079 6.47242 6.68862 6.74259 6.55054 6.95705C6.55019 6.95758 6.54949 6.95855 6.54858 6.95997C6.54662 6.96306 6.54327 6.96851 6.53882 6.9756C6.52989 6.98982 6.51654 7.01198 6.49878 7.04103C6.46299 7.09959 6.41053 7.18663 6.34741 7.29689C6.22067 7.5183 6.05185 7.83019 5.88354 8.18947C5.53394 8.9358 5.23804 9.78244 5.23804 10.4414C5.23811 12.2582 5.75705 13.3927 6.52026 14.126C7.30334 14.8782 8.44446 15.3058 9.86694 15.4951C10.1367 15.531 10.3657 15.7107 10.4656 15.9639C10.5653 16.2172 10.5204 16.5055 10.3474 16.7158C9.96785 17.1775 9.76052 17.7568 9.7605 18.3545V21.5C9.7605 21.9141 9.4245 22.2498 9.0105 22.25C8.59628 22.25 8.2605 21.9142 8.2605 21.5V18.3535C8.26058 17.8098 8.37126 17.2768 8.57788 16.7822C7.40788 16.5053 6.32855 16.0219 5.4812 15.208C4.35613 14.1272 3.73812 12.5628 3.73804 10.4414C3.73804 9.4344 4.15876 8.33491 4.52515 7.55275C4.71477 7.14799 4.90395 6.79933 5.04565 6.55177C5.06045 6.52593 5.07487 6.50122 5.08862 6.47755C4.88076 5.8591 4.78914 5.14665 4.79761 4.51662C4.80283 4.12892 4.84558 3.74035 4.93823 3.39747C5.02445 3.07847 5.18277 2.68819 5.49976 2.42384L5.62183 2.34083C5.75068 2.27081 5.89841 2.23973 6.04663 2.25294L5.98022 3.00001C6.04678 2.25843 6.04635 2.25296 6.04663 2.25294H6.04956C6.05045 2.25303 6.05138 2.25381 6.05249 2.25392C6.05485 2.25414 6.05797 2.25359 6.06128 2.25392C6.06788 2.25459 6.07637 2.25569 6.08667 2.25685C6.10725 2.25918 6.13506 2.26282 6.16968 2.26759C6.23917 2.27717 6.33657 2.29223 6.45679 2.31544C6.69696 2.36182 7.03176 2.44055 7.42847 2.57228C8.14333 2.80966 9.06612 3.22289 9.99976 3.93165C11.7218 3.52211 13.5263 3.47411 15.321 3.92677C16.2527 3.22076 17.1739 2.80915 17.8875 2.57228C18.2841 2.44062 18.6189 2.36181 18.8591 2.31544C18.9794 2.29224 19.0767 2.27717 19.1462 2.26759C19.1808 2.26283 19.2087 2.25918 19.2292 2.25685C19.2394 2.2557 19.2481 2.25459 19.2546 2.25392C19.2579 2.25359 19.2611 2.25414 19.2634 2.25392C19.2645 2.25382 19.2655 2.25303 19.2664 2.25294H19.2683C19.4665 2.23523 19.6645 2.29716 19.8171 2.42482C20.133 2.68921 20.2908 3.07894 20.3767 3.39747C20.4691 3.74012 20.512 4.12901 20.5173 4.51662C20.5259 5.14631 20.4336 5.85841 20.2263 6.47658C20.2403 6.50059 20.2552 6.52551 20.2703 6.55177C20.412 6.79931 20.6012 7.14801 20.7908 7.55275C21.1572 8.33491 21.5779 9.4344 21.5779 10.4414C21.5778 12.5634 20.9591 14.1273 19.8337 15.208C18.9859 16.0222 17.9065 16.5055 16.7361 16.7822C16.9427 17.277 17.0555 17.8096 17.0554 18.3535V21.5C17.0554 21.9141 16.7195 22.2498 16.3054 22.25C15.8912 22.25 15.5554 21.9142 15.5554 21.5Z" fill="#008573"/>
<path d="M2.7881 16.1003C3.18542 15.9834 3.60276 16.2108 3.71974 16.6081C3.83155 16.9881 4.02637 17.3474 4.29689 17.6628L4.41798 17.7956L4.41896 17.7966C4.75282 18.1441 5.17493 18.4224 5.65431 18.6022C6.14083 18.7849 6.66096 18.8627 7.1797 18.8317C7.69829 18.8007 8.2048 18.6617 8.66603 18.4226C9.03376 18.2319 9.48613 18.3751 9.67677 18.7429C9.86736 19.1105 9.72396 19.5629 9.35646 19.7536C8.70857 20.0895 7.99704 20.2853 7.26856 20.3288C6.5403 20.3723 5.811 20.2628 5.12794 20.0065C4.44536 19.7504 3.83105 19.3501 3.33692 18.8356V18.8347C2.8415 18.3208 2.47825 17.7047 2.28028 17.0319C2.16338 16.6346 2.39081 16.2173 2.7881 16.1003Z" fill="#008573"/>
</svg>
