<svg width="12" height="10" viewBox="0 0 12 10" fill="none" xmlns="http://www.w3.org/2000/svg">
<path fill-rule="evenodd" clip-rule="evenodd" d="M3 10C2.20435 10 1.44129 9.70734 0.87868 9.18641C0.316071 8.66547 0 7.95893 0 7.22222V5.55556C0 5.40821 0.0632141 5.26691 0.175736 5.16272C0.288258 5.05853 0.44087 5 0.6 5C0.75913 5 0.911742 5.05853 1.02426 5.16272C1.13679 5.26691 1.2 5.40821 1.2 5.55556V7.22222C1.2 7.66425 1.38964 8.08817 1.72721 8.40073C2.06477 8.71329 2.52261 8.88889 3 8.88889H9C9.47739 8.88889 9.93523 8.71329 10.2728 8.40073C10.6104 8.08817 10.8 7.66425 10.8 7.22222V5.55556C10.8 5.40821 10.8632 5.26691 10.9757 5.16272C11.0883 5.05853 11.2409 5 11.4 5C11.5591 5 11.7117 5.05853 11.8243 5.16272C11.9368 5.26691 12 5.40821 12 5.55556V7.22222C12 7.95893 11.6839 8.66547 11.1213 9.18641C10.5587 9.70734 9.79565 10 9 10H3Z" fill="#008573"/>
<path fill-rule="evenodd" clip-rule="evenodd" d="M9.42901 3.83333C9.48417 3.88551 9.52769 3.94724 9.55706 4.015C9.58643 4.08276 9.60109 4.15522 9.6002 4.22823C9.59931 4.30124 9.58288 4.37337 9.55186 4.4405C9.52084 4.50763 9.47583 4.56843 9.41941 4.61944L6.71941 7.06389C6.60731 7.16535 6.45677 7.22215 6.30001 7.22215C6.14325 7.22215 5.99272 7.16535 5.88061 7.06389L3.18061 4.61944C3.12307 4.56871 3.07698 4.5079 3.04502 4.44054C3.01306 4.37318 2.99587 4.30061 2.99445 4.22705C2.99303 4.15349 3.0074 4.0804 3.03673 4.01202C3.06606 3.94364 3.10977 3.88134 3.16532 3.82873C3.22086 3.77612 3.28714 3.73425 3.36031 3.70555C3.43347 3.67685 3.51206 3.6619 3.59152 3.66155C3.67098 3.6612 3.74972 3.67547 3.82318 3.70353C3.89663 3.73159 3.96333 3.77288 4.01941 3.825L5.70001 5.34667V0.555556C5.70001 0.408213 5.76323 0.266905 5.87575 0.162719C5.98827 0.0585317 6.14088 0 6.30001 0C6.45914 0 6.61176 0.0585317 6.72428 0.162719C6.8368 0.266905 6.90001 0.408213 6.90001 0.555556V5.34667L8.58001 3.825C8.63637 3.77393 8.70304 3.73364 8.77622 3.70644C8.8494 3.67924 8.92765 3.66567 9.0065 3.66649C9.08535 3.66732 9.16326 3.68253 9.23575 3.71125C9.30825 3.73997 9.37392 3.78165 9.42901 3.83389V3.83333Z" fill="#008573"/>
</svg>
