<svg width="24" height="24" viewBox="0 0 24 24" fill="none" xmlns="http://www.w3.org/2000/svg">
<path d="M2 9.12663V17.5C2 18.3951 2.35558 19.2535 2.98851 19.8865C3.62145 20.5194 4.47989 20.875 5.375 20.875H18.875C19.7701 20.875 20.6285 20.5194 21.2615 19.8865C21.8944 19.2535 22.25 18.3951 22.25 17.5V7.375C22.25 6.47989 21.8944 5.62145 21.2615 4.98851C20.6285 4.35558 19.7701 4 18.875 4H5.375C4.47989 4 3.62145 4.35558 2.98851 4.98851C2.35558 5.62145 2 6.47989 2 7.375V9.12663ZM5.375 5.6875H18.875C19.3226 5.6875 19.7518 5.86529 20.0682 6.18176C20.3847 6.49823 20.5625 6.92745 20.5625 7.375V8.62375L12.125 13.1665L3.6875 8.62375V7.375C3.6875 6.92745 3.86529 6.49823 4.18176 6.18176C4.49822 5.86529 4.92745 5.6875 5.375 5.6875ZM3.6875 10.5408L11.7251 14.8675C11.848 14.9337 11.9854 14.9683 12.125 14.9683C12.2646 14.9683 12.402 14.9337 12.5249 14.8675L20.5625 10.5408V17.5C20.5625 17.9476 20.3847 18.3768 20.0682 18.6932C19.7518 19.0097 19.3226 19.1875 18.875 19.1875H5.375C4.92745 19.1875 4.49822 19.0097 4.18176 18.6932C3.86529 18.3768 3.6875 17.9476 3.6875 17.5V10.5408Z" fill="#008573"/>
</svg>
