<svg width="24" height="24" viewBox="0 0 24 24" fill="none" xmlns="http://www.w3.org/2000/svg">
<path fill-rule="evenodd" clip-rule="evenodd" d="M5.733 2.04299C6.95 0.832991 8.954 1.04799 9.973 2.40999L11.235 4.09399C12.065 5.20199 11.991 6.74999 11.006 7.72899L10.768 7.96699C10.741 8.0669 10.7383 8.17181 10.76 8.27299C10.823 8.68099 11.164 9.54499 12.592 10.965C14.02 12.385 14.89 12.725 15.304 12.789C15.4083 12.81 15.516 12.8069 15.619 12.78L16.027 12.374C16.903 11.504 18.247 11.341 19.331 11.93L21.241 12.97C22.878 13.858 23.291 16.082 21.951 17.415L20.53 18.827C20.082 19.272 19.48 19.643 18.746 19.712C16.936 19.881 12.719 19.665 8.286 15.258C4.149 11.144 3.355 7.55599 3.254 5.78799C3.204 4.89399 3.626 4.13799 4.164 3.60399L5.733 2.04299ZM8.773 3.30899C8.266 2.63199 7.322 2.57799 6.79 3.10699L5.22 4.66699C4.89 4.99499 4.732 5.35699 4.752 5.70299C4.832 7.10799 5.472 10.345 9.344 14.195C13.406 18.233 17.157 18.354 18.607 18.218C18.903 18.191 19.197 18.037 19.472 17.764L20.892 16.351C21.47 15.777 21.343 14.731 20.525 14.287L18.615 13.248C18.087 12.962 17.469 13.056 17.085 13.438L16.63 13.891L16.1 13.359C16.63 13.891 16.629 13.892 16.628 13.892L16.627 13.894L16.624 13.897L16.617 13.903L16.602 13.917C16.5598 13.9562 16.5143 13.9916 16.466 14.023C16.386 14.076 16.28 14.135 16.147 14.184C15.877 14.285 15.519 14.339 15.077 14.271C14.21 14.138 13.061 13.547 11.534 12.029C10.008 10.511 9.412 9.36899 9.278 8.50299C9.209 8.06099 9.264 7.70299 9.366 7.43299C9.42213 7.28106 9.50251 7.13922 9.604 7.01299L9.636 6.97799L9.65 6.96299L9.656 6.95699L9.659 6.95399L9.661 6.95199L9.949 6.66599C10.377 6.23899 10.437 5.53199 10.034 4.99299L8.773 3.30899Z" fill="#008573"/>
</svg>
