<svg width="14" height="14" viewBox="0 0 14 14" fill="none" xmlns="http://www.w3.org/2000/svg">
<path d="M5.99146 2.2157V2.22256M7.364 11.1304V11.1373" stroke="#008573" stroke-linecap="round"/>
<path d="M10.451 4.27451H9.07843V2.90196C9.07843 1.93843 9.07843 1.45598 8.84784 1.1101C8.74768 0.960166 8.61895 0.83144 8.46902 0.731274C8.12314 0.5 7.64069 0.5 6.67716 0.5C5.71363 0.5 5.23118 0.5 4.88529 0.731274C4.73536 0.83144 4.60664 0.960166 4.50647 1.1101C4.2752 1.45598 4.2752 1.93843 4.2752 2.90196V4.27451H2.90196C1.93843 4.27451 1.45598 4.27451 1.1101 4.50578C0.960166 4.60595 0.83144 4.73468 0.731275 4.88461C0.5 5.23049 0.5 5.71294 0.5 6.67647C0.5 7.64 0.5 8.12245 0.731275 8.46833C0.83144 8.61827 0.960166 8.74699 1.1101 8.84716C1.45598 9.07843 1.93843 9.07843 2.90196 9.07843H4.27451V10.451C4.27451 11.4145 4.27451 11.897 4.50647 12.2428C4.60664 12.3928 4.73536 12.5215 4.88529 12.6217C5.23118 12.8529 5.71294 12.8529 6.67647 12.8529C7.64069 12.8529 8.12314 12.8529 8.46902 12.6217C8.61863 12.5215 8.74765 12.3925 8.84784 12.2428C9.07912 11.897 9.07912 11.4145 9.07912 10.451V9.07843H10.451C11.4145 9.07843 11.897 9.07843 12.2428 8.84716C12.3928 8.74699 12.5215 8.61827 12.6217 8.46833C12.8529 8.12245 12.8529 7.64 12.8529 6.67647C12.8529 5.71294 12.8529 5.23049 12.6217 4.88461C12.5215 4.73468 12.3928 4.60595 12.2428 4.50578C11.897 4.27451 11.4145 4.27451 10.451 4.27451Z" stroke="#008573" stroke-linecap="round" stroke-linejoin="round"/>
<path d="M9.0798 4.27454V6.6765H4.27588V9.07846M6.67784 9.07846H9.0798M4.27588 4.27454H6.67784" stroke="#008573" stroke-linecap="round" stroke-linejoin="round"/>
</svg>
