<svg width="46" height="46" viewBox="0 0 46 46" fill="none" xmlns="http://www.w3.org/2000/svg">
<path d="M44.7295 4.19245C44.682 3.43264 44.3586 2.71635 43.8201 2.17824C43.2815 1.64013 42.565 1.31727 41.8052 1.27036C39.0593 1.10752 32.0418 1.35735 26.2177 7.18146L25.0243 8.37706H11.8259C11.4159 8.3761 11.0099 8.45644 10.6312 8.61342C10.2526 8.7704 9.90879 9.00091 9.61979 9.29161L1.95767 16.9515C1.54741 17.3619 1.25961 17.8784 1.12655 18.4433C0.993486 19.0081 1.02042 19.5988 1.20434 20.1491C1.38825 20.6995 1.72187 21.1877 2.16777 21.559C2.61367 21.9304 3.15421 22.1701 3.72876 22.2514L12.4571 23.4693L22.5305 33.5427L23.7484 42.2822C23.8304 42.8564 24.0706 43.3964 24.4423 43.8417C24.8139 44.2871 25.3022 44.6201 25.8524 44.8035C26.4026 44.9869 26.9931 45.0135 27.5576 44.8802C28.1221 44.7469 28.6383 44.459 29.0483 44.0489L36.7105 36.3868C37.0012 36.0977 37.2317 35.754 37.3887 35.3753C37.5456 34.9966 37.626 34.5906 37.625 34.1807V20.9755L38.8184 19.7821C44.6403 13.9536 44.8923 6.94055 44.7295 4.19245ZM3.74215 19.307C3.7182 19.2297 3.71572 19.1474 3.73497 19.0688C3.75423 18.9902 3.79449 18.9184 3.85145 18.8609L11.5113 11.1832C11.595 11.1002 11.708 11.0537 11.8259 11.0538H22.3476L12.611 20.7881L4.10351 19.6015C4.02136 19.5922 3.94361 19.5596 3.87953 19.5074C3.81545 19.4552 3.76776 19.3856 3.74215 19.307ZM34.9461 34.174C34.9456 34.2921 34.8982 34.4052 34.8145 34.4885L27.1568 42.1484C27.0986 42.2073 27.0251 42.2488 26.9446 42.2683C26.8642 42.2878 26.7798 42.2845 26.7011 42.2588C26.6224 42.2331 26.5524 42.186 26.4989 42.1228C26.4455 42.0596 26.4107 41.9827 26.3984 41.9008L25.2117 33.3888L34.9461 23.6522V34.174ZM36.9246 17.8906L23.793 31.0199L14.9799 22.2068L28.1115 9.07301C29.8715 7.30173 31.9901 5.92752 34.325 5.04263C36.6599 4.15775 39.1572 3.78269 41.649 3.94262C41.7562 3.95159 41.8565 3.99896 41.9315 4.07601C42.0065 4.15307 42.0511 4.25462 42.0572 4.36198C42.2155 6.852 41.8397 9.3471 40.9548 11.68C40.07 14.0129 38.6966 16.1296 36.9268 17.8884L36.9246 17.8906ZM17.5474 36.1057C16.5837 38.2315 13.3382 43.1745 4.16373 43.1745C3.80878 43.1745 3.46836 43.0335 3.21737 42.7825C2.96638 42.5315 2.82537 42.1911 2.82537 41.8361C2.82537 32.6616 7.76839 29.4161 9.89415 28.4525C10.0541 28.3793 10.2269 28.3382 10.4027 28.3318C10.5785 28.3253 10.7538 28.3536 10.9187 28.4149C11.0836 28.4762 11.2347 28.5694 11.3636 28.6891C11.4925 28.8089 11.5965 28.9528 11.6697 29.1128C11.7429 29.2727 11.784 29.4455 11.7904 29.6213C11.7969 29.7971 11.7686 29.9724 11.7073 30.1373C11.646 30.3022 11.5528 30.4533 11.4331 30.5822C11.3133 30.7111 11.1694 30.8151 11.0095 30.8883C9.44803 31.5954 5.9839 33.9041 5.55117 40.4598C12.1069 40.0271 14.4156 36.5518 15.1227 35.0015C15.1959 34.8416 15.2999 34.6977 15.4288 34.5779C15.5577 34.4582 15.7088 34.365 15.8737 34.3037C16.0386 34.2424 16.2139 34.2141 16.3897 34.2206C16.5655 34.227 16.7383 34.2681 16.8982 34.3413C17.0582 34.4145 17.2021 34.5185 17.3219 34.6474C17.4416 34.7763 17.5348 34.9274 17.5961 35.0923C17.6574 35.2572 17.6857 35.4325 17.6792 35.6083C17.6727 35.7841 17.6317 35.9569 17.5585 36.1168L17.5474 36.1057Z" fill="#E0F8F3"/>
</svg>
