<svg width="46" height="44" viewBox="0 0 46 44" fill="none" xmlns="http://www.w3.org/2000/svg">
<path d="M23 3.1625C22.484 3.1625 21.9731 3.26414 21.4964 3.46159C21.0197 3.65905 20.5865 3.94847 20.2216 4.31333C19.8568 4.67819 19.5674 5.11134 19.3699 5.58804C19.1725 6.06475 19.0708 6.57569 19.0708 7.09167C19.0708 7.60766 19.1725 8.11859 19.3699 8.5953C19.5674 9.07201 19.8568 9.50515 20.2216 9.87001C20.5865 10.2349 21.0197 10.5243 21.4964 10.7217C21.9731 10.9192 22.484 11.0208 23 11.0208C24.0421 11.0208 25.0415 10.6069 25.7783 9.87001C26.5152 9.13315 26.9292 8.13375 26.9292 7.09167C26.9292 6.04959 26.5152 5.05019 25.7783 4.31333C25.0415 3.57647 24.0421 3.1625 23 3.1625ZM16.2643 7.09167C16.2643 5.30525 16.9739 3.59199 18.2371 2.3288C19.5003 1.06561 21.2136 0.355957 23 0.355957C24.7864 0.355957 26.4997 1.06561 27.7629 2.3288C29.026 3.59199 29.7357 5.30525 29.7357 7.09167C29.7357 8.87809 29.026 10.5913 27.7629 11.8545C26.4997 13.1177 24.7864 13.8274 23 13.8274C21.2136 13.8274 19.5003 13.1177 18.2371 11.8545C16.9739 10.5913 16.2643 8.87809 16.2643 7.09167ZM37.594 5.40774C36.8497 5.40774 36.1358 5.70343 35.6095 6.22976C35.0832 6.75609 34.7875 7.46995 34.7875 8.21429C34.7875 8.95863 35.0832 9.67249 35.6095 10.1988C36.1358 10.7251 36.8497 11.0208 37.594 11.0208C38.3384 11.0208 39.0522 10.7251 39.5786 10.1988C40.1049 9.67249 40.4006 8.95863 40.4006 8.21429C40.4006 7.46995 40.1049 6.75609 39.5786 6.22976C39.0522 5.70343 38.3384 5.40774 37.594 5.40774ZM31.9809 8.21429C31.9809 6.7256 32.5723 5.29789 33.625 4.24523C34.6776 3.19257 36.1054 2.60119 37.594 2.60119C39.0827 2.60119 40.5104 3.19257 41.5631 4.24523C42.6158 5.29789 43.2071 6.7256 43.2071 8.21429C43.2071 9.70297 42.6158 11.1307 41.5631 12.1833C40.5104 13.236 39.0827 13.8274 37.594 13.8274C36.1054 13.8274 34.6776 13.236 33.625 12.1833C32.5723 11.1307 31.9809 9.70297 31.9809 8.21429ZM5.59939 8.21429C5.59939 7.46995 5.89508 6.75609 6.42141 6.22976C6.94774 5.70343 7.6616 5.40774 8.40594 5.40774C9.15028 5.40774 9.86414 5.70343 10.3905 6.22976C10.9168 6.75609 11.2125 7.46995 11.2125 8.21429C11.2125 8.95863 10.9168 9.67249 10.3905 10.1988C9.86414 10.7251 9.15028 11.0208 8.40594 11.0208C7.6616 11.0208 6.94774 10.7251 6.42141 10.1988C5.89508 9.67249 5.59939 8.95863 5.59939 8.21429ZM8.40594 2.60119C6.91726 2.60119 5.48954 3.19257 4.43688 4.24523C3.38422 5.29789 2.79285 6.7256 2.79285 8.21429C2.79285 9.70297 3.38422 11.1307 4.43688 12.1833C5.48954 13.236 6.91726 13.8274 8.40594 13.8274C9.89463 13.8274 11.3223 13.236 12.375 12.1833C13.4277 11.1307 14.019 9.70297 14.019 8.21429C14.019 6.7256 13.4277 5.29789 12.375 4.24523C11.3223 3.19257 9.89463 2.60119 8.40594 2.60119ZM12.8964 20.8438C12.8964 19.5784 13.3991 18.3648 14.2938 17.4701C15.1886 16.5753 16.4022 16.0726 17.6675 16.0726H28.3324C29.5978 16.0726 30.8114 16.5753 31.7061 17.4701C32.6009 18.3648 33.1036 19.5784 33.1036 20.8438V32.9119C33.1036 35.5915 32.0391 38.1614 30.1443 40.0562C28.2495 41.951 25.6796 43.0155 23 43.0155C20.3204 43.0155 17.7505 41.951 15.8557 40.0562C13.9609 38.1614 12.8964 35.5915 12.8964 32.9119V20.8438ZM23 40.2089C24.9353 40.2089 26.7913 39.4401 28.1598 38.0717C29.5282 36.7032 30.297 34.8472 30.297 32.9119V20.8438C30.297 20.3227 30.09 19.823 29.7216 19.4546C29.3532 19.0862 28.8535 18.8792 28.3324 18.8792H17.6675C17.1465 18.8792 16.6468 19.0862 16.2784 19.4546C15.9099 19.823 15.703 20.3227 15.703 20.8438V32.9119C15.703 34.8472 16.4718 36.7032 17.8402 38.0717C19.2087 39.4401 21.0647 40.2089 23 40.2089ZM8.40594 36.8411C9.34457 36.8413 10.2647 36.5801 11.0632 36.0867C11.309 37.014 11.6604 37.8975 12.1027 38.7248C10.9053 39.3632 9.56291 39.6806 8.20636 39.6461C6.84981 39.6117 5.5253 39.2265 4.3618 38.5282C3.1983 37.8298 2.23547 36.8421 1.56706 35.6611C0.898643 34.4802 0.547427 33.1463 0.547608 31.7893V20.8449C0.54746 20.2182 0.67076 19.5977 0.910466 19.0187C1.15017 18.4397 1.50159 17.9136 1.94464 17.4705C2.3877 17.0273 2.91371 16.6758 3.49265 16.4359C4.07158 16.1961 4.69209 16.0726 5.31874 16.0726H11.4931C11.8172 16.0734 12.1319 16.1044 12.4373 16.1658C11.7381 16.9461 11.2229 17.8733 10.9296 18.8792H5.31874C4.7977 18.8792 4.298 19.0862 3.92957 19.4546C3.56114 19.823 3.35416 20.3227 3.35416 20.8438V31.7893C3.35416 33.1291 3.8864 34.414 4.83379 35.3614C5.78118 36.3088 7.06612 36.8411 8.40594 36.8411ZM37.594 39.6476C36.3048 39.6483 35.0353 39.3318 33.8973 38.7259C34.3396 37.8975 34.6909 37.014 34.9368 36.0867C35.7021 36.56 36.5799 36.8203 37.4795 36.8407C38.3791 36.8611 39.2678 36.6408 40.0538 36.2027C40.8397 35.7646 41.4944 35.1245 41.9501 34.3486C42.4058 33.5727 42.646 32.6891 42.6458 31.7893V20.8438C42.6458 20.3227 42.4388 19.823 42.0704 19.4546C41.702 19.0862 41.2023 18.8792 40.6812 18.8792H35.0704C34.7767 17.8732 34.2611 16.946 33.5616 16.1658C33.8684 16.1044 34.1835 16.0734 34.5068 16.0726H40.6812C41.9466 16.0726 43.1602 16.5753 44.0549 17.4701C44.9497 18.3648 45.4524 19.5784 45.4524 20.8438V31.7893C45.4524 33.8734 44.6244 35.8722 43.1507 37.346C41.677 38.8197 39.6782 39.6476 37.594 39.6476Z" fill="#E0F8F3"/>
</svg>
