<?xml version="1.0" encoding="UTF-8"?>
<svg xmlns="http://www.w3.org/2000/svg" xmlns:xlink="http://www.w3.org/1999/xlink" viewBox="0 0 800 800">
  <defs>
    <style>
      .cls-1 {
        fill: #cfcfcf;
      }

      .cls-1, .cls-2, .cls-3, .cls-4, .cls-5, .cls-6, .cls-7, .cls-8, .cls-9, .cls-10, .cls-11, .cls-12, .cls-13, .cls-14, .cls-15, .cls-16, .cls-17, .cls-18, .cls-19, .cls-20, .cls-21, .cls-22, .cls-23, .cls-24, .cls-25, .cls-26, .cls-27, .cls-28, .cls-29, .cls-30, .cls-31, .cls-32, .cls-33, .cls-34, .cls-35, .cls-36, .cls-37, .cls-38, .cls-39, .cls-40, .cls-41, .cls-42, .cls-43, .cls-44, .cls-45, .cls-46, .cls-47, .cls-48, .cls-49, .cls-50, .cls-51, .cls-52, .cls-53, .cls-54, .cls-55, .cls-56, .cls-57, .cls-58, .cls-59, .cls-60, .cls-61, .cls-62, .cls-63, .cls-64, .cls-65, .cls-66, .cls-67, .cls-68, .cls-69, .cls-70, .cls-71, .cls-72, .cls-73, .cls-74, .cls-75, .cls-76, .cls-77, .cls-78, .cls-79 {
        fill-rule: evenodd;
      }

      .cls-2 {
        fill: #f4f4f4;
      }

      .cls-3 {
        fill: #c6c6c6;
      }

      .cls-4 {
        fill: #d3d3d3;
      }

      .cls-5 {
        fill: #fdfdfd;
      }

      .cls-6 {
        fill: #d7d7d7;
      }

      .cls-7 {
        fill: #bbb;
      }

      .cls-8 {
        fill: #d6d6d6;
      }

      .cls-9 {
        fill: #dedede;
      }

      .cls-10 {
        fill: #f1f1f1;
      }

      .cls-11 {
        fill: #b8b8b8;
      }

      .cls-12 {
        fill: #efefef;
      }

      .cls-13 {
        fill: #ccc;
      }

      .cls-14 {
        fill: #d1d1d1;
      }

      .cls-80, .cls-16 {
        fill: #fff;
      }

      .cls-15 {
        fill: #eaeaea;
      }

      .cls-17 {
        fill: #fbfbfb;
      }

      .cls-18 {
        fill: #b6b6b6;
      }

      .cls-81, .cls-82 {
        fill: none;
      }

      .cls-19 {
        fill: #dadada;
      }

      .cls-20 {
        fill: #c9c9c9;
      }

      .cls-21 {
        fill: url(#linear-gradient);
      }

      .cls-21, .cls-83, .cls-70 {
        mix-blend-mode: multiply;
      }

      .cls-22 {
        fill: #b3b3b3;
      }

      .cls-23 {
        fill: #c1c1c1;
      }

      .cls-24 {
        fill: #e9e9e9;
      }

      .cls-25 {
        fill: #c3c3c3;
      }

      .cls-26 {
        fill: #d4d4d4;
      }

      .cls-84 {
        clip-path: url(#clippath-1);
      }

      .cls-27 {
        fill: #dcdcdc;
      }

      .cls-28 {
        fill: #f9f9f9;
      }

      .cls-29 {
        fill: #eee;
      }

      .cls-30 {
        fill: #b5b5b5;
      }

      .cls-31 {
        fill: #dfdfdf;
      }

      .cls-32 {
        fill: #bcbcbc;
      }

      .cls-33 {
        fill: #b9b9b9;
      }

      .cls-34 {
        fill: #f6f6f6;
      }

      .cls-35 {
        fill: #f2f2f2;
      }

      .cls-85 {
        isolation: isolate;
      }

      .cls-36 {
        fill: #e3e3e3;
      }

      .cls-37 {
        fill: #e7e7e7;
      }

      .cls-38 {
        fill: #d8d8d8;
      }

      .cls-39 {
        fill: #d0d0d0;
      }

      .cls-40 {
        fill: #e1e1e1;
      }

      .cls-41 {
        fill: #c7c7c7;
      }

      .cls-42 {
        fill: #cacaca;
      }

      .cls-43 {
        fill: #cdcdcd;
      }

      .cls-44 {
        fill: #fefefe;
      }

      .cls-86 {
        fill: #cb001c;
      }

      .cls-82 {
        clip-rule: evenodd;
      }

      .cls-45 {
        fill: #e5e5e5;
      }

      .cls-46 {
        fill: #ebebeb;
      }

      .cls-47 {
        fill: #e0e0e0;
      }

      .cls-48 {
        fill: #cecece;
      }

      .cls-49 {
        fill: #bebebe;
      }

      .cls-50 {
        fill: #c2c2c2;
      }

      .cls-51 {
        fill: #e8e8e8;
      }

      .cls-52 {
        fill: #e6e6e6;
      }

      .cls-53 {
        fill: #f8f8f8;
      }

      .cls-54 {
        fill: #ececec;
      }

      .cls-55 {
        fill: #bababa;
      }

      .cls-56 {
        fill: #fcfcfc;
      }

      .cls-57 {
        fill: #f5f5f5;
      }

      .cls-58 {
        fill: #b4b4b4;
      }

      .cls-59 {
        fill: #d5d5d5;
      }

      .cls-60 {
        fill: #f0f0f0;
      }

      .cls-61 {
        fill: #c5c5c5;
      }

      .cls-62 {
        fill: #f7f7f7;
      }

      .cls-63 {
        fill: #cbcbcb;
      }

      .cls-64 {
        fill: #fafafa;
      }

      .cls-65 {
        fill: #c4c4c4;
      }

      .cls-66 {
        fill: #dbdbdb;
      }

      .cls-67 {
        fill: #ddd;
      }

      .cls-68 {
        fill: #c8c8c8;
      }

      .cls-69 {
        fill: silver;
      }

      .cls-70 {
        fill: url(#linear-gradient-2);
      }

      .cls-71 {
        fill: #ededed;
      }

      .cls-72 {
        fill: #e2e2e2;
      }

      .cls-73 {
        fill: #b7b7b7;
      }

      .cls-74 {
        fill: #bfbfbf;
      }

      .cls-75 {
        fill: #f3f3f3;
      }

      .cls-76 {
        fill: #bdbdbd;
      }

      .cls-77 {
        fill: #e4e4e4;
      }

      .cls-87 {
        clip-path: url(#clippath);
      }

      .cls-78 {
        fill: #d9d9d9;
      }

      .cls-79 {
        fill: #d2d2d2;
      }

      .cls-88 {
        fill: #2a3560;
      }
    </style>
    <clipPath id="clippath">
      <path class="cls-82" d="M160.81,215.5h485.22c15.31,0,27.76,12.51,27.76,27.76v262.69c0,15.24-12.45,27.76-27.76,27.76H160.81c-15.24,0-27.76-12.51-27.76-27.76V243.26c0-15.25,12.51-27.76,27.76-27.76h0Z"/>
    </clipPath>
    <clipPath id="clippath-1">
      <rect class="cls-81" x="120.66" y="207.92" width="570.67" height="332.9"/>
    </clipPath>
    <linearGradient id="linear-gradient" x1="276.66" y1="431.42" x2="713.99" y2="235.42" gradientUnits="userSpaceOnUse">
      <stop offset="0" stop-color="#fff"/>
      <stop offset="1" stop-color="#8f8f8f"/>
    </linearGradient>
    <linearGradient id="linear-gradient-2" x1="673.79" y1="374.6" x2="133.06" y2="374.6" xlink:href="#linear-gradient"/>
  </defs>
  <g class="cls-85">
    <g id="_3" data-name="3">
      <g class="cls-83">
        <path class="cls-16" d="M127.96,254.36h485.22c15.3,0,27.76,12.51,27.76,27.76v262.68c0,15.25-12.45,27.76-27.76,27.76H127.96c-15.25,0-27.76-12.51-27.76-27.76v-262.68c0-15.25,12.51-27.76,27.76-27.76h0Z"/>
        <path class="cls-44" d="M128.39,253.85h485.22c15.3,0,27.76,12.51,27.76,27.76v262.68c0,15.25-12.45,27.76-27.76,27.76H128.39c-15.25,0-27.76-12.51-27.76-27.76v-262.68c0-15.24,12.51-27.76,27.76-27.76h0Z"/>
        <path class="cls-5" d="M128.81,253.35h485.22c15.3,0,27.76,12.51,27.76,27.76v262.69c0,15.25-12.45,27.76-27.76,27.76H128.81c-15.25,0-27.76-12.51-27.76-27.76v-262.69c0-15.25,12.51-27.76,27.76-27.76h0Z"/>
        <path class="cls-56" d="M129.24,252.84h485.22c15.3,0,27.76,12.51,27.76,27.76v262.69c0,15.25-12.45,27.76-27.76,27.76H129.24c-15.24,0-27.76-12.51-27.76-27.76v-262.69c0-15.24,12.51-27.76,27.76-27.76h0Z"/>
        <path class="cls-17" d="M129.67,252.34h485.22c15.31,0,27.76,12.51,27.76,27.76v262.68c0,15.25-12.45,27.76-27.76,27.76H129.67c-15.25,0-27.76-12.51-27.76-27.76v-262.68c0-15.25,12.51-27.76,27.76-27.76h0Z"/>
        <path class="cls-64" d="M130.09,251.83h485.22c15.3,0,27.76,12.51,27.76,27.76v262.68c0,15.25-12.45,27.76-27.76,27.76H130.09c-15.24,0-27.76-12.51-27.76-27.76v-262.68c0-15.24,12.51-27.76,27.76-27.76h0Z"/>
        <path class="cls-28" d="M130.52,251.33h485.22c15.3,0,27.76,12.51,27.76,27.76v262.68c0,15.25-12.45,27.76-27.76,27.76H130.52c-15.25,0-27.76-12.51-27.76-27.76v-262.68c0-15.25,12.51-27.76,27.76-27.76h0Z"/>
        <path class="cls-53" d="M130.95,250.82h485.22c15.31,0,27.76,12.51,27.76,27.76v262.69c0,15.25-12.45,27.76-27.76,27.76H130.95c-15.25,0-27.76-12.51-27.76-27.76v-262.69c0-15.25,12.51-27.76,27.76-27.76h0Z"/>
        <path class="cls-62" d="M131.38,250.32h485.22c15.3,0,27.76,12.51,27.76,27.76v262.68c0,15.25-12.45,27.76-27.76,27.76H131.38c-15.25,0-27.76-12.51-27.76-27.76v-262.68c0-15.25,12.51-27.76,27.76-27.76h0Z"/>
        <path class="cls-34" d="M131.8,249.81h485.22c15.3,0,27.76,12.51,27.76,27.76v262.68c0,15.25-12.45,27.76-27.76,27.76H131.8c-15.25,0-27.76-12.51-27.76-27.76v-262.68c0-15.25,12.51-27.76,27.76-27.76h0Z"/>
        <path class="cls-57" d="M132.23,249.31h485.22c15.3,0,27.76,12.51,27.76,27.76v262.68c0,15.25-12.45,27.76-27.76,27.76H132.23c-15.25,0-27.76-12.51-27.76-27.76v-262.68c0-15.25,12.51-27.76,27.76-27.76h0Z"/>
        <path class="cls-2" d="M132.66,248.81h485.22c15.3,0,27.76,12.51,27.76,27.76v262.68c0,15.25-12.45,27.76-27.76,27.76H132.66c-15.25,0-27.76-12.51-27.76-27.76v-262.68c0-15.25,12.51-27.76,27.76-27.76h0Z"/>
        <path class="cls-75" d="M133.08,248.3h485.22c15.31,0,27.76,12.51,27.76,27.76v262.69c0,15.25-12.45,27.76-27.76,27.76H133.08c-15.25,0-27.76-12.51-27.76-27.76v-262.69c0-15.24,12.51-27.76,27.76-27.76h0Z"/>
        <path class="cls-35" d="M133.51,247.8h485.22c15.3,0,27.76,12.51,27.76,27.76v262.68c0,15.25-12.45,27.76-27.76,27.76H133.51c-15.25,0-27.76-12.51-27.76-27.76v-262.68c0-15.25,12.51-27.76,27.76-27.76h0Z"/>
        <path class="cls-10" d="M133.94,247.29h485.22c15.31,0,27.76,12.51,27.76,27.76v262.68c0,15.25-12.45,27.76-27.76,27.76H133.94c-15.24,0-27.76-12.51-27.76-27.76v-262.68c0-15.24,12.51-27.76,27.76-27.76h0Z"/>
        <path class="cls-60" d="M134.36,246.79h485.22c15.3,0,27.76,12.51,27.76,27.76v262.68c0,15.25-12.45,27.76-27.76,27.76H134.36c-15.24,0-27.76-12.51-27.76-27.76v-262.68c0-15.24,12.51-27.76,27.76-27.76h0Z"/>
        <path class="cls-12" d="M134.79,246.28h485.22c15.31,0,27.76,12.51,27.76,27.76v262.68c0,15.25-12.45,27.76-27.76,27.76H134.79c-15.25,0-27.76-12.51-27.76-27.76v-262.68c0-15.25,12.51-27.76,27.76-27.76h0Z"/>
        <path class="cls-29" d="M135.22,245.78h485.22c15.3,0,27.76,12.51,27.76,27.76v262.68c0,15.25-12.45,27.76-27.76,27.76H135.22c-15.25,0-27.76-12.51-27.76-27.76v-262.68c0-15.25,12.51-27.76,27.76-27.76h0Z"/>
        <path class="cls-71" d="M135.64,245.27h485.22c15.3,0,27.76,12.51,27.76,27.76v262.68c0,15.25-12.45,27.76-27.76,27.76H135.64c-15.25,0-27.76-12.51-27.76-27.76v-262.68c0-15.25,12.51-27.76,27.76-27.76h0Z"/>
        <path class="cls-54" d="M136.07,244.77h485.22c15.3,0,27.76,12.51,27.76,27.76v262.68c0,15.25-12.45,27.76-27.76,27.76H136.07c-15.25,0-27.76-12.51-27.76-27.76v-262.68c0-15.25,12.51-27.76,27.76-27.76h0Z"/>
        <path class="cls-46" d="M136.5,244.26h485.22c15.3,0,27.76,12.51,27.76,27.76v262.69c0,15.25-12.45,27.76-27.76,27.76H136.5c-15.24,0-27.76-12.51-27.76-27.76v-262.69c0-15.24,12.51-27.76,27.76-27.76h0Z"/>
        <path class="cls-15" d="M136.92,243.76h485.22c15.31,0,27.76,12.51,27.76,27.76v262.69c0,15.25-12.45,27.76-27.76,27.76H136.92c-15.25,0-27.76-12.51-27.76-27.76v-262.69c0-15.25,12.51-27.76,27.76-27.76h0Z"/>
        <path class="cls-24" d="M137.35,243.25h485.22c15.31,0,27.76,12.51,27.76,27.76v262.68c0,15.25-12.45,27.76-27.76,27.76H137.35c-15.25,0-27.76-12.51-27.76-27.76v-262.68c0-15.25,12.51-27.76,27.76-27.76h0Z"/>
        <path class="cls-51" d="M137.77,242.75h485.22c15.31,0,27.76,12.51,27.76,27.76v262.68c0,15.25-12.45,27.76-27.76,27.76H137.77c-15.24,0-27.76-12.51-27.76-27.76v-262.68c0-15.25,12.51-27.76,27.76-27.76h0Z"/>
        <path class="cls-37" d="M138.2,242.25h485.22c15.31,0,27.76,12.51,27.76,27.76v262.69c0,15.25-12.45,27.76-27.76,27.76H138.2c-15.24,0-27.76-12.51-27.76-27.76v-262.69c0-15.24,12.51-27.76,27.76-27.76h0Z"/>
        <path class="cls-52" d="M138.63,241.74h485.22c15.31,0,27.76,12.51,27.76,27.76v262.68c0,15.25-12.45,27.76-27.76,27.76H138.63c-15.24,0-27.76-12.51-27.76-27.76v-262.68c0-15.25,12.51-27.76,27.76-27.76h0Z"/>
        <path class="cls-45" d="M139.06,241.24h485.22c15.31,0,27.76,12.51,27.76,27.76v262.68c0,15.25-12.45,27.76-27.76,27.76H139.06c-15.25,0-27.76-12.51-27.76-27.76v-262.68c0-15.25,12.51-27.76,27.76-27.76h0Z"/>
        <path class="cls-77" d="M139.48,240.73h485.22c15.31,0,27.76,12.51,27.76,27.76v262.69c0,15.25-12.45,27.76-27.76,27.76H139.48c-15.24,0-27.76-12.51-27.76-27.76v-262.69c0-15.25,12.51-27.76,27.76-27.76h0Z"/>
        <path class="cls-36" d="M139.91,240.23h485.22c15.31,0,27.76,12.51,27.76,27.76v262.68c0,15.25-12.45,27.76-27.76,27.76H139.91c-15.25,0-27.76-12.51-27.76-27.76v-262.68c0-15.25,12.51-27.76,27.76-27.76h0Z"/>
        <path class="cls-72" d="M140.34,239.72h485.22c15.3,0,27.76,12.51,27.76,27.76v262.68c0,15.25-12.45,27.76-27.76,27.76H140.34c-15.24,0-27.76-12.51-27.76-27.76v-262.68c0-15.25,12.51-27.76,27.76-27.76h0Z"/>
        <path class="cls-40" d="M140.76,239.22h485.22c15.31,0,27.76,12.51,27.76,27.76v262.69c0,15.25-12.45,27.76-27.76,27.76H140.76c-15.25,0-27.76-12.51-27.76-27.76v-262.69c0-15.25,12.51-27.76,27.76-27.76h0Z"/>
        <path class="cls-47" d="M141.19,238.71h485.22c15.3,0,27.76,12.51,27.76,27.76v262.69c0,15.25-12.45,27.76-27.76,27.76H141.19c-15.25,0-27.76-12.51-27.76-27.76v-262.69c0-15.24,12.51-27.76,27.76-27.76h0Z"/>
        <path class="cls-31" d="M141.61,238.21h485.22c15.31,0,27.76,12.51,27.76,27.76v262.68c0,15.25-12.45,27.76-27.76,27.76H141.61c-15.24,0-27.76-12.51-27.76-27.76v-262.68c0-15.25,12.51-27.76,27.76-27.76h0Z"/>
        <path class="cls-9" d="M142.04,237.7h485.22c15.31,0,27.76,12.51,27.76,27.76v262.69c0,15.25-12.45,27.76-27.76,27.76H142.04c-15.24,0-27.76-12.51-27.76-27.76v-262.69c0-15.25,12.51-27.76,27.76-27.76h0Z"/>
        <path class="cls-67" d="M142.47,237.2h485.22c15.31,0,27.76,12.51,27.76,27.76v262.69c0,15.25-12.45,27.76-27.76,27.76H142.47c-15.24,0-27.76-12.51-27.76-27.76v-262.69c0-15.24,12.51-27.76,27.76-27.76h0Z"/>
        <path class="cls-27" d="M142.9,236.7h485.22c15.31,0,27.76,12.51,27.76,27.76v262.68c0,15.25-12.45,27.76-27.76,27.76H142.9c-15.24,0-27.76-12.51-27.76-27.76v-262.68c0-15.25,12.51-27.76,27.76-27.76h0Z"/>
        <path class="cls-66" d="M143.32,236.19h485.22c15.31,0,27.76,12.51,27.76,27.76v262.68c0,15.24-12.45,27.76-27.76,27.76H143.32c-15.24,0-27.76-12.51-27.76-27.76v-262.68c0-15.25,12.51-27.76,27.76-27.76h0Z"/>
        <path class="cls-19" d="M143.75,235.69h485.22c15.31,0,27.76,12.51,27.76,27.76v262.68c0,15.25-12.45,27.76-27.76,27.76H143.75c-15.24,0-27.76-12.51-27.76-27.76v-262.68c0-15.25,12.51-27.76,27.76-27.76h0Z"/>
        <path class="cls-78" d="M144.17,235.18h485.22c15.3,0,27.76,12.51,27.76,27.76v262.68c0,15.25-12.45,27.76-27.76,27.76H144.17c-15.24,0-27.76-12.51-27.76-27.76v-262.68c0-15.25,12.51-27.76,27.76-27.76h0Z"/>
        <path class="cls-38" d="M144.6,234.68h485.22c15.31,0,27.76,12.51,27.76,27.76v262.69c0,15.24-12.45,27.76-27.76,27.76H144.6c-15.25,0-27.76-12.51-27.76-27.76v-262.69c0-15.25,12.51-27.76,27.76-27.76h0Z"/>
        <path class="cls-6" d="M145.03,234.17h485.22c15.31,0,27.76,12.51,27.76,27.76v262.69c0,15.25-12.45,27.76-27.76,27.76H145.03c-15.25,0-27.76-12.51-27.76-27.76v-262.69c0-15.24,12.51-27.76,27.76-27.76h0Z"/>
        <path class="cls-8" d="M145.45,233.67h485.22c15.31,0,27.76,12.51,27.76,27.76v262.69c0,15.25-12.45,27.76-27.76,27.76H145.45c-15.24,0-27.76-12.51-27.76-27.76v-262.69c0-15.24,12.51-27.76,27.76-27.76h0Z"/>
        <path class="cls-59" d="M145.88,233.16h485.22c15.31,0,27.76,12.51,27.76,27.76v262.69c0,15.25-12.45,27.76-27.76,27.76H145.88c-15.25,0-27.76-12.51-27.76-27.76v-262.69c0-15.25,12.51-27.76,27.76-27.76h0Z"/>
        <path class="cls-26" d="M146.31,232.66h485.22c15.31,0,27.76,12.51,27.76,27.76v262.69c0,15.25-12.45,27.76-27.76,27.76H146.31c-15.25,0-27.76-12.51-27.76-27.76v-262.69c0-15.24,12.51-27.76,27.76-27.76h0Z"/>
        <path class="cls-4" d="M146.73,232.15h485.22c15.31,0,27.76,12.51,27.76,27.76v262.68c0,15.25-12.45,27.76-27.76,27.76H146.73c-15.24,0-27.76-12.51-27.76-27.76v-262.68c0-15.25,12.51-27.76,27.76-27.76h0Z"/>
        <path class="cls-79" d="M147.16,231.65h485.22c15.31,0,27.76,12.51,27.76,27.76v262.69c0,15.24-12.45,27.76-27.76,27.76H147.16c-15.24,0-27.76-12.51-27.76-27.76v-262.69c0-15.25,12.51-27.76,27.76-27.76h0Z"/>
        <path class="cls-14" d="M147.59,231.14h485.22c15.31,0,27.76,12.51,27.76,27.76v262.69c0,15.25-12.45,27.76-27.76,27.76H147.59c-15.24,0-27.76-12.51-27.76-27.76v-262.69c0-15.24,12.51-27.76,27.76-27.76h0Z"/>
        <path class="cls-39" d="M148.01,230.64h485.22c15.31,0,27.76,12.51,27.76,27.76v262.69c0,15.25-12.45,27.76-27.76,27.76H148.01c-15.24,0-27.76-12.51-27.76-27.76v-262.69c0-15.24,12.51-27.76,27.76-27.76h0Z"/>
        <path class="cls-1" d="M148.44,230.14h485.22c15.31,0,27.76,12.51,27.76,27.76v262.69c0,15.24-12.45,27.76-27.76,27.76H148.44c-15.24,0-27.76-12.51-27.76-27.76v-262.69c0-15.25,12.51-27.76,27.76-27.76h0Z"/>
        <path class="cls-48" d="M148.87,229.63h485.22c15.31,0,27.76,12.51,27.76,27.76v262.69c0,15.25-12.45,27.76-27.76,27.76H148.87c-15.24,0-27.76-12.51-27.76-27.76v-262.69c0-15.25,12.51-27.76,27.76-27.76h0Z"/>
        <path class="cls-43" d="M149.29,229.13h485.22c15.31,0,27.76,12.51,27.76,27.76v262.69c0,15.25-12.45,27.76-27.76,27.76H149.29c-15.24,0-27.76-12.51-27.76-27.76v-262.69c0-15.25,12.51-27.76,27.76-27.76h0Z"/>
        <path class="cls-13" d="M149.72,228.62h485.22c15.31,0,27.76,12.51,27.76,27.76v262.69c0,15.24-12.45,27.76-27.76,27.76H149.72c-15.24,0-27.76-12.51-27.76-27.76v-262.69c0-15.25,12.51-27.76,27.76-27.76h0Z"/>
        <path class="cls-63" d="M150.15,228.12h485.22c15.31,0,27.76,12.51,27.76,27.76v262.69c0,15.25-12.45,27.76-27.76,27.76H150.15c-15.25,0-27.76-12.51-27.76-27.76V255.87c0-15.25,12.51-27.76,27.76-27.76h0Z"/>
        <path class="cls-42" d="M150.58,227.61h485.22c15.31,0,27.76,12.51,27.76,27.76v262.68c0,15.25-12.45,27.76-27.76,27.76H150.58c-15.25,0-27.76-12.51-27.76-27.76V255.37c0-15.25,12.51-27.76,27.76-27.76h0Z"/>
        <path class="cls-20" d="M151,227.11h485.22c15.31,0,27.76,12.51,27.76,27.76v262.69c0,15.24-12.45,27.76-27.76,27.76H151c-15.24,0-27.76-12.51-27.76-27.76V254.87c0-15.25,12.51-27.76,27.76-27.76h0Z"/>
        <path class="cls-68" d="M151.43,226.6h485.22c15.31,0,27.76,12.51,27.76,27.76v262.69c0,15.25-12.45,27.76-27.76,27.76H151.43c-15.24,0-27.76-12.51-27.76-27.76V254.36c0-15.25,12.51-27.76,27.76-27.76h0Z"/>
        <path class="cls-41" d="M151.85,226.1h485.22c15.31,0,27.76,12.51,27.76,27.76v262.68c0,15.25-12.45,27.76-27.76,27.76H151.85c-15.24,0-27.76-12.51-27.76-27.76V253.86c0-15.25,12.51-27.76,27.76-27.76h0Z"/>
        <path class="cls-3" d="M152.28,225.59h485.22c15.31,0,27.76,12.51,27.76,27.76v262.69c0,15.24-12.45,27.76-27.76,27.76H152.28c-15.24,0-27.76-12.51-27.76-27.76V253.35c0-15.25,12.51-27.76,27.76-27.76h0Z"/>
        <path class="cls-61" d="M152.71,225.09h485.22c15.31,0,27.76,12.51,27.76,27.76v262.69c0,15.24-12.45,27.76-27.76,27.76H152.71c-15.24,0-27.76-12.51-27.76-27.76V252.85c0-15.25,12.51-27.76,27.76-27.76h0Z"/>
        <path class="cls-65" d="M153.13,224.59h485.22c15.31,0,27.76,12.51,27.76,27.76v262.68c0,15.25-12.45,27.76-27.76,27.76H153.13c-15.24,0-27.76-12.51-27.76-27.76V252.34c0-15.25,12.51-27.76,27.76-27.76h0Z"/>
        <path class="cls-25" d="M153.56,224.08h485.22c15.31,0,27.76,12.51,27.76,27.76v262.69c0,15.25-12.45,27.76-27.76,27.76H153.56c-15.24,0-27.76-12.51-27.76-27.76V251.84c0-15.25,12.51-27.76,27.76-27.76h0Z"/>
        <path class="cls-50" d="M153.99,223.58h485.22c15.31,0,27.76,12.51,27.76,27.76v262.69c0,15.24-12.45,27.76-27.76,27.76H153.99c-15.24,0-27.76-12.51-27.76-27.76V251.33c0-15.25,12.51-27.76,27.76-27.76h0Z"/>
        <path class="cls-23" d="M154.41,223.07h485.22c15.31,0,27.76,12.51,27.76,27.76v262.69c0,15.24-12.45,27.76-27.76,27.76H154.41c-15.24,0-27.76-12.51-27.76-27.76V250.83c0-15.25,12.51-27.76,27.76-27.76h0Z"/>
        <path class="cls-69" d="M154.84,222.57h485.22c15.31,0,27.76,12.51,27.76,27.76v262.68c0,15.25-12.45,27.76-27.76,27.76H154.84c-15.24,0-27.76-12.51-27.76-27.76V250.32c0-15.25,12.51-27.76,27.76-27.76h0Z"/>
        <path class="cls-74" d="M155.27,222.06h485.22c15.31,0,27.76,12.51,27.76,27.76v262.68c0,15.25-12.45,27.76-27.76,27.76H155.27c-15.24,0-27.76-12.51-27.76-27.76V249.82c0-15.25,12.51-27.76,27.76-27.76h0Z"/>
        <path class="cls-49" d="M155.69,221.56h485.22c15.31,0,27.76,12.51,27.76,27.76v262.69c0,15.24-12.45,27.76-27.76,27.76H155.69c-15.24,0-27.76-12.51-27.76-27.76V249.31c0-15.25,12.51-27.76,27.76-27.76h0Z"/>
        <path class="cls-76" d="M156.12,221.05h485.22c15.31,0,27.76,12.51,27.76,27.76v262.69c0,15.25-12.45,27.76-27.76,27.76H156.12c-15.24,0-27.76-12.51-27.76-27.76V248.81c0-15.24,12.51-27.76,27.76-27.76h0Z"/>
        <path class="cls-32" d="M156.55,220.55h485.22c15.31,0,27.76,12.51,27.76,27.76v262.69c0,15.24-12.45,27.76-27.76,27.76H156.55c-15.24,0-27.76-12.51-27.76-27.76V248.31c0-15.25,12.51-27.76,27.76-27.76h0Z"/>
        <path class="cls-7" d="M156.97,220.04h485.22c15.31,0,27.76,12.51,27.76,27.76v262.69c0,15.24-12.45,27.76-27.76,27.76H156.97c-15.24,0-27.76-12.51-27.76-27.76V247.8c0-15.24,12.51-27.76,27.76-27.76h0Z"/>
        <path class="cls-55" d="M157.4,219.54h485.22c15.31,0,27.76,12.51,27.76,27.76v262.69c0,15.24-12.45,27.76-27.76,27.76H157.4c-15.24,0-27.76-12.51-27.76-27.76V247.3c0-15.25,12.51-27.76,27.76-27.76h0Z"/>
        <path class="cls-33" d="M157.83,219.04h485.22c15.31,0,27.76,12.51,27.76,27.76v262.69c0,15.24-12.45,27.76-27.76,27.76H157.83c-15.24,0-27.76-12.51-27.76-27.76V246.79c0-15.24,12.51-27.76,27.76-27.76h0Z"/>
        <path class="cls-11" d="M158.25,218.53h485.22c15.31,0,27.76,12.51,27.76,27.76v262.69c0,15.24-12.45,27.76-27.76,27.76H158.25c-15.24,0-27.76-12.51-27.76-27.76V246.29c0-15.25,12.51-27.76,27.76-27.76h0Z"/>
        <path class="cls-73" d="M158.68,218.03h485.22c15.31,0,27.76,12.51,27.76,27.76v262.69c0,15.24-12.45,27.75-27.76,27.75H158.68c-15.24,0-27.76-12.51-27.76-27.75V245.78c0-15.24,12.51-27.76,27.76-27.76h0Z"/>
        <path class="cls-18" d="M159.11,217.52h485.22c15.31,0,27.76,12.51,27.76,27.76v262.69c0,15.24-12.45,27.76-27.76,27.76H159.11c-15.24,0-27.76-12.51-27.76-27.76V245.28c0-15.25,12.51-27.76,27.76-27.76h0Z"/>
        <path class="cls-30" d="M159.53,217.02h485.22c15.31,0,27.76,12.51,27.76,27.76v262.69c0,15.24-12.45,27.76-27.76,27.76H159.53c-15.24,0-27.76-12.51-27.76-27.76V244.77c0-15.25,12.51-27.76,27.76-27.76h0Z"/>
        <path class="cls-58" d="M159.96,216.51h485.22c15.31,0,27.76,12.51,27.76,27.76v262.69c0,15.25-12.45,27.76-27.76,27.76H159.96c-15.24,0-27.76-12.51-27.76-27.76V244.27c0-15.25,12.51-27.76,27.76-27.76h0Z"/>
        <path class="cls-22" d="M160.39,216.01h485.22c15.31,0,27.76,12.51,27.76,27.76v262.69c0,15.24-12.45,27.75-27.76,27.75H160.39c-15.24,0-27.76-12.51-27.76-27.75V243.76c0-15.25,12.51-27.76,27.76-27.76h0Z"/>
        <path class="cls-22" d="M160.81,215.5h485.22c15.31,0,27.76,12.51,27.76,27.76v262.69c0,15.24-12.45,27.76-27.76,27.76H160.81c-15.24,0-27.76-12.51-27.76-27.76V243.26c0-15.25,12.51-27.76,27.76-27.76h0Z"/>
      </g>
      <g class="cls-87">
        <g id="USA">
          <g class="cls-84">
            <rect class="cls-86" x="120.66" y="515.21" width="570.67" height="25.61"/>
            <rect class="cls-80" x="120.66" y="489.6" width="570.67" height="25.61"/>
            <rect class="cls-86" x="120.66" y="464" width="570.67" height="25.6"/>
            <rect class="cls-80" x="120.66" y="438.39" width="570.67" height="25.61"/>
            <rect class="cls-86" x="120.66" y="412.78" width="570.67" height="25.62"/>
            <rect class="cls-80" x="120.66" y="387.19" width="570.67" height="25.59"/>
            <rect class="cls-86" x="120.66" y="361.57" width="570.67" height="25.61"/>
            <rect class="cls-80" x="120.66" y="335.96" width="570.67" height="25.59"/>
            <rect class="cls-86" x="120.66" y="310.35" width="570.67" height="25.61"/>
            <rect class="cls-80" x="120.66" y="284.74" width="570.67" height="25.61"/>
            <rect class="cls-86" x="120.66" y="259.13" width="570.67" height="25.61"/>
            <rect class="cls-80" x="120.66" y="233.53" width="570.67" height="25.59"/>
            <rect class="cls-86" x="120.66" y="207.92" width="570.67" height="25.61"/>
            <rect class="cls-88" x="120.66" y="207.92" width="260.55" height="179.26"/>
            <polygon class="cls-80" points="144.16 227.67 146.37 234.46 153.48 234.46 147.72 238.64 149.93 245.41 144.16 241.22 138.4 245.41 140.6 238.64 134.84 234.46 141.96 234.46 144.16 227.67"/>
            <polygon class="cls-80" points="144.16 257.6 146.37 264.37 153.48 264.37 147.72 268.55 149.93 275.34 144.16 271.14 138.4 275.34 140.6 268.55 134.84 264.37 141.96 264.37 144.16 257.6"/>
            <polygon class="cls-80" points="144.16 287.52 146.37 294.29 153.48 294.29 147.72 298.47 149.93 305.26 144.16 301.06 138.4 305.26 140.6 298.47 134.84 294.29 141.96 294.29 144.16 287.52"/>
            <polygon class="cls-80" points="144.16 317.44 146.37 324.22 153.48 324.22 147.72 328.42 149.93 335.17 144.16 330.99 138.4 335.17 140.6 328.42 134.84 324.22 141.96 324.22 144.16 317.44"/>
            <polygon class="cls-80" points="144.16 347.37 146.37 354.14 153.48 354.14 147.72 358.32 149.93 365.09 144.16 360.91 138.4 365.09 140.6 358.32 134.84 354.14 141.96 354.14 144.16 347.37"/>
            <polygon class="cls-80" points="165 243.45 167.2 250.22 174.33 250.22 168.56 254.4 170.76 261.17 165 256.99 159.24 261.17 161.44 254.4 155.68 250.22 162.8 250.22 165 243.45"/>
            <polygon class="cls-80" points="165 273.37 167.2 280.12 174.33 280.12 168.56 284.32 170.76 291.09 165 286.91 159.24 291.09 161.44 284.32 155.68 280.12 162.8 280.12 165 273.37"/>
            <polygon class="cls-80" points="165 303.28 167.2 310.05 174.33 310.05 168.56 314.25 170.76 321.02 165 316.84 159.24 321.02 161.44 314.25 155.68 310.05 162.8 310.05 165 303.28"/>
            <polygon class="cls-80" points="165 333.2 167.2 339.97 174.33 339.97 168.56 344.17 170.76 350.93 165 346.75 159.24 350.93 161.44 344.17 155.68 339.97 162.8 339.97 165 333.2"/>
            <polygon class="cls-80" points="186.11 227.67 188.31 234.46 195.43 234.46 189.67 238.64 191.87 245.41 186.11 241.22 180.34 245.41 182.54 238.64 176.79 234.46 183.9 234.46 186.11 227.67"/>
            <polygon class="cls-80" points="186.11 257.6 188.31 264.37 195.43 264.37 189.67 268.55 191.87 275.34 186.11 271.14 180.34 275.34 182.54 268.55 176.79 264.37 183.9 264.37 186.11 257.6"/>
            <polygon class="cls-80" points="186.11 287.52 188.31 294.29 195.43 294.29 189.67 298.47 191.87 305.26 186.11 301.06 180.34 305.26 182.54 298.47 176.79 294.29 183.9 294.29 186.11 287.52"/>
            <polygon class="cls-80" points="186.11 317.44 188.31 324.22 195.43 324.22 189.67 328.42 191.87 335.17 186.11 330.99 180.34 335.17 182.54 328.42 176.79 324.22 183.9 324.22 186.11 317.44"/>
            <polygon class="cls-80" points="186.11 347.37 188.31 354.14 195.43 354.14 189.67 358.32 191.87 365.09 186.11 360.91 180.34 365.09 182.54 358.32 176.79 354.14 183.9 354.14 186.11 347.37"/>
            <polygon class="cls-80" points="206.94 243.45 209.15 250.22 216.26 250.22 210.51 254.4 212.71 261.17 206.94 256.99 201.18 261.17 203.38 254.4 197.62 250.22 204.75 250.22 206.94 243.45"/>
            <polygon class="cls-80" points="206.94 273.37 209.15 280.12 216.26 280.12 210.51 284.32 212.71 291.09 206.94 286.91 201.18 291.09 203.38 284.32 197.62 280.12 204.75 280.12 206.94 273.37"/>
            <polygon class="cls-80" points="206.94 303.28 209.15 310.05 216.26 310.05 210.51 314.25 212.71 321.02 206.94 316.84 201.18 321.02 203.38 314.25 197.62 310.05 204.75 310.05 206.94 303.28"/>
            <polygon class="cls-80" points="206.94 333.2 209.15 339.97 216.26 339.97 210.51 344.17 212.71 350.93 206.94 346.75 201.18 350.93 203.38 344.17 197.62 339.97 204.75 339.97 206.94 333.2"/>
            <polygon class="cls-80" points="228.05 227.67 230.25 234.46 237.38 234.46 231.61 238.64 233.81 245.41 228.05 241.22 222.28 245.41 224.5 238.64 218.72 234.46 225.86 234.46 228.05 227.67"/>
            <polygon class="cls-80" points="228.05 257.6 230.25 264.37 237.38 264.37 231.61 268.55 233.81 275.34 228.05 271.14 222.28 275.34 224.5 268.55 218.72 264.37 225.86 264.37 228.05 257.6"/>
            <polygon class="cls-80" points="228.05 287.52 230.25 294.29 237.38 294.29 231.61 298.47 233.81 305.26 228.05 301.06 222.28 305.26 224.5 298.47 218.72 294.29 225.86 294.29 228.05 287.52"/>
            <polygon class="cls-80" points="228.05 317.44 230.25 324.22 237.38 324.22 231.61 328.42 233.81 335.17 228.05 330.99 222.28 335.17 224.5 328.42 218.72 324.22 225.86 324.22 228.05 317.44"/>
            <polygon class="cls-80" points="228.05 347.37 230.25 354.14 237.38 354.14 231.61 358.32 233.81 365.09 228.05 360.91 222.28 365.09 224.5 358.32 218.72 354.14 225.86 354.14 228.05 347.37"/>
            <polygon class="cls-80" points="248.89 243.45 251.09 250.22 258.21 250.22 252.45 254.4 254.65 261.17 248.89 256.99 243.12 261.17 245.32 254.4 239.57 250.22 246.68 250.22 248.89 243.45"/>
            <polygon class="cls-80" points="248.89 273.37 251.09 280.12 258.21 280.12 252.45 284.32 254.65 291.09 248.89 286.91 243.12 291.09 245.32 284.32 239.57 280.12 246.68 280.12 248.89 273.37"/>
            <polygon class="cls-80" points="248.89 303.28 251.09 310.05 258.21 310.05 252.45 314.25 254.65 321.02 248.89 316.84 243.12 321.02 245.32 314.25 239.57 310.05 246.68 310.05 248.89 303.28"/>
            <polygon class="cls-80" points="248.89 333.2 251.09 339.97 258.21 339.97 252.45 344.17 254.65 350.93 248.89 346.75 243.12 350.93 245.32 344.17 239.57 339.97 246.68 339.97 248.89 333.2"/>
            <polygon class="cls-80" points="270 227.67 272.2 234.46 279.32 234.46 273.56 238.64 275.76 245.41 270 241.22 264.24 245.41 266.44 238.64 260.68 234.46 267.79 234.46 270 227.67"/>
            <polygon class="cls-80" points="270 257.6 272.2 264.37 279.32 264.37 273.56 268.55 275.76 275.34 270 271.14 264.24 275.34 266.44 268.55 260.68 264.37 267.79 264.37 270 257.6"/>
            <polygon class="cls-80" points="270 287.52 272.2 294.29 279.32 294.29 273.56 298.47 275.76 305.26 270 301.06 264.24 305.26 266.44 298.47 260.68 294.29 267.79 294.29 270 287.52"/>
            <polygon class="cls-80" points="270 317.44 272.2 324.22 279.32 324.22 273.56 328.42 275.76 335.17 270 330.99 264.24 335.17 266.44 328.42 260.68 324.22 267.79 324.22 270 317.44"/>
            <polygon class="cls-80" points="270 347.37 272.2 354.14 279.32 354.14 273.56 358.32 275.76 365.09 270 360.91 264.24 365.09 266.44 358.32 260.68 354.14 267.79 354.14 270 347.37"/>
            <polygon class="cls-80" points="290.83 243.45 293.04 250.22 300.16 250.22 294.4 254.4 296.6 261.17 290.83 256.99 285.06 261.17 287.28 254.4 281.51 250.22 288.64 250.22 290.83 243.45"/>
            <polygon class="cls-80" points="290.83 273.37 293.04 280.12 300.16 280.12 294.4 284.32 296.6 291.09 290.83 286.91 285.06 291.09 287.28 284.32 281.51 280.12 288.64 280.12 290.83 273.37"/>
            <polygon class="cls-80" points="290.83 303.28 293.04 310.05 300.16 310.05 294.4 314.25 296.6 321.02 290.83 316.84 285.06 321.02 287.28 314.25 281.51 310.05 288.64 310.05 290.83 303.28"/>
            <polygon class="cls-80" points="290.83 333.2 293.04 339.97 300.16 339.97 294.4 344.17 296.6 350.93 290.83 346.75 285.06 350.93 287.28 344.17 281.51 339.97 288.64 339.97 290.83 333.2"/>
            <polygon class="cls-80" points="311.94 227.67 314.15 234.46 321.27 234.46 315.51 238.64 317.7 245.41 311.94 241.22 306.18 245.41 308.38 238.64 302.62 234.46 309.74 234.46 311.94 227.67"/>
            <polygon class="cls-80" points="311.94 257.6 314.15 264.37 321.27 264.37 315.51 268.55 317.7 275.34 311.94 271.14 306.18 275.34 308.38 268.55 302.62 264.37 309.74 264.37 311.94 257.6"/>
            <polygon class="cls-80" points="311.94 287.52 314.15 294.29 321.27 294.29 315.51 298.47 317.7 305.26 311.94 301.06 306.18 305.26 308.38 298.47 302.62 294.29 309.74 294.29 311.94 287.52"/>
            <polygon class="cls-80" points="311.94 317.44 314.15 324.22 321.27 324.22 315.51 328.42 317.7 335.17 311.94 330.99 306.18 335.17 308.38 328.42 302.62 324.22 309.74 324.22 311.94 317.44"/>
            <polygon class="cls-80" points="311.94 347.37 314.15 354.14 321.27 354.14 315.51 358.32 317.7 365.09 311.94 360.91 306.18 365.09 308.38 358.32 302.62 354.14 309.74 354.14 311.94 347.37"/>
            <polygon class="cls-80" points="332.78 243.45 334.98 250.22 342.1 250.22 336.34 254.4 338.54 261.17 332.78 256.99 327.02 261.17 329.22 254.4 323.46 250.22 330.57 250.22 332.78 243.45"/>
            <polygon class="cls-80" points="332.78 273.37 334.98 280.12 342.1 280.12 336.34 284.32 338.54 291.09 332.78 286.91 327.02 291.09 329.22 284.32 323.46 280.12 330.57 280.12 332.78 273.37"/>
            <polygon class="cls-80" points="332.78 303.28 334.98 310.05 342.1 310.05 336.34 314.25 338.54 321.02 332.78 316.84 327.02 321.02 329.22 314.25 323.46 310.05 330.57 310.05 332.78 303.28"/>
            <polygon class="cls-80" points="332.78 333.2 334.98 339.97 342.1 339.97 336.34 344.17 338.54 350.93 332.78 346.75 327.02 350.93 329.22 344.17 323.46 339.97 330.57 339.97 332.78 333.2"/>
            <polygon class="cls-80" points="353.88 227.67 356.09 234.46 363.2 234.46 357.45 238.64 359.65 245.41 353.88 241.22 348.12 245.41 350.32 238.64 344.56 234.46 351.68 234.46 353.88 227.67"/>
            <polygon class="cls-80" points="353.88 257.6 356.09 264.37 363.2 264.37 357.45 268.55 359.65 275.34 353.88 271.14 348.12 275.34 350.32 268.55 344.56 264.37 351.68 264.37 353.88 257.6"/>
            <polygon class="cls-80" points="353.88 287.52 356.09 294.29 363.2 294.29 357.45 298.47 359.65 305.26 353.88 301.06 348.12 305.26 350.32 298.47 344.56 294.29 351.68 294.29 353.88 287.52"/>
            <polygon class="cls-80" points="353.88 317.44 356.09 324.22 363.2 324.22 357.45 328.42 359.65 335.17 353.88 330.99 348.12 335.17 350.32 328.42 344.56 324.22 351.68 324.22 353.88 317.44"/>
            <polygon class="cls-80" points="353.88 347.37 356.09 354.14 363.2 354.14 357.45 358.32 359.65 365.09 353.88 360.91 348.12 365.09 350.32 358.32 344.56 354.14 351.68 354.14 353.88 347.37"/>
          </g>
        </g>
      </g>
      <g>
        <path class="cls-21" d="M160.81,221.7h485.22c11.9,0,21.62,9.72,21.62,21.56v262.69c0,11.84-9.72,21.56-21.62,21.56H160.81c-11.84,0-21.56-9.72-21.56-21.56V243.26c0-11.84,9.72-21.56,21.56-21.56h0Z"/>
        <path class="cls-70" d="M160.81,221.7h485.22c11.9,0,21.62,9.72,21.62,21.56v262.69c0,11.84-9.72,21.56-21.62,21.56H160.81c-11.84,0-21.56-9.72-21.56-21.56V243.26c0-11.84,9.72-21.56,21.56-21.56h0ZM646.04,215.5H160.81c-15.24,0-27.76,12.51-27.76,27.76v262.69c0,15.24,12.51,27.76,27.76,27.76h485.22c15.31,0,27.76-12.51,27.76-27.76V243.26c0-15.25-12.45-27.76-27.76-27.76h0Z"/>
      </g>
    </g>
  </g>
</svg>